<svg xmlns="http://www.w3.org/2000/svg" xmlns:xlink="http://www.w3.org/1999/xlink" xmlns:lucid="lucid" width="1601.18" height="1496.59"><g transform="translate(0 0)" lucid:page-tab-id="0_0"><path d="M178 540c17.67 0 32 17.9 32 40s-14.33 40-32 40H82c-17.67 0-32-17.9-32-40s14.33-40 32-40z" stroke="#000" stroke-opacity="0" fill="#0c7cba"/><use xlink:href="#a" transform="matrix(1,0,0,1,55,545) translate(8.574999999999989 17)"/><use xlink:href="#b" transform="matrix(1,0,0,1,55,545) translate(90.52499999999999 17)"/><use xlink:href="#c" transform="matrix(1,0,0,1,55,545) translate(24.099999999999994 38.6)"/><use xlink:href="#d" transform="matrix(1,0,0,1,55,545) translate(44.574999999999996 60.2)"/><path d="M50 797.92c0-4.42 3.55-8.44 7.94-9L202.06 771c4.4-.56 7.94 2.58 7.94 7v104c0 4.42-3.58 8-8 8H58c-4.42 0-8-3.58-8-8z" stroke="#000" stroke-opacity="0" stroke-width="2" fill="#83bbe5"/><use xlink:href="#e" transform="matrix(1,0,0,1,55,795) translate(2.0999999999999943 37.8)"/><use xlink:href="#f" transform="matrix(1,0,0,1,55,795) translate(57.05 37.8)"/><use xlink:href="#g" transform="matrix(1,0,0,1,55,795) translate(111.94999999999999 37.8)"/><use xlink:href="#h" transform="matrix(1,0,0,1,55,795) translate(17.099999999999994 59.4)"/><use xlink:href="#i" transform="matrix(1,0,0,1,55,795) translate(82.95 59.4)"/><path d="M900.6 952.03c3.43-2.78 9-2.78 12.43 0l74.14 59.94c3.43 2.78 3.43 7.28 0 10.06l-74.14 59.94c-3.43 2.78-9 2.78-12.44 0l-74.14-59.94c-3.44-2.78-3.44-7.28 0-10.06z" stroke="#0c7cba" stroke-width="4" fill="#fff"/><use xlink:href="#j" transform="matrix(1,0,0,1,825.2393464902996,951.9999999999999) translate(21.574999999999996 57.8)"/><use xlink:href="#k" transform="matrix(1,0,0,1,825.2393464902996,951.9999999999999) translate(82.525 57.8)"/><use xlink:href="#l" transform="matrix(1,0,0,1,825.2393464902996,951.9999999999999) translate(46.574999999999996 79.4)"/><path d="M130 620.5v145.12" stroke="#333" fill="none"/><path d="M130.5 620.5h-1v-.5h1z" fill="#333"/><path d="M130 780.38l-4.64-14.26h9.28z" stroke="#333" fill="#333"/><path d="M1191.77 1016.9l2.9 1.2 2.52 1.95 1.93 2.5 1.2 2.92.4 3.08-1 .13-.37-2.95-1.1-2.66-1.78-2.3-2.3-1.78-2.67-1.12-2.9-.38h-143.25v-1h143.3zm-199.58.6v-1h22.04v1z" fill="#333"/><path d="M992.2 1017.5h-.52l.03-1h.5zM1200.24 1043.38l-4.64-14.26h9.27z" fill="#333"/><path d="M1200.24 1045l-5.32-16.38h10.64zm-3.95-15.38l3.94 12.14 3.95-12.14z" fill="#333"/><use xlink:href="#m" transform="matrix(1,0,0,1,1014.2410410080673,1007.6666666666665) translate(0 12.444444444444446)"/><path d="M403.15 32.74c0-4.42 3.58-8 8-8h836.75c4.4 0 8 3.58 8 8V57.9c0 4.4-3.6 8-8 8H411.15c-4.42 0-8-3.6-8-8z" stroke="#000" stroke-opacity="0" stroke-width="2" fill="#fff" fill-opacity="0"/><use xlink:href="#n" transform="matrix(1,0,0,1,407.14655278534315,28.739685015602056) translate(318.1896296296296 23.657777777777778)"/><use xlink:href="#o" transform="matrix(1,0,0,1,407.14655278534315,28.739685015602056) translate(420.09209876543207 23.657777777777778)"/><use xlink:href="#p" transform="matrix(1,0,0,1,407.14655278534315,28.739685015602056) translate(481.1316049382716 23.657777777777778)"/><path d="M659.44 64.55h347.9M659.47 64.55h-1.03M1007.3 64.55h1.03" stroke="#a9afb8" stroke-width="2" fill="none"/><path d="M403.15 73.9c0-4.42 3.58-8 8-8h837.7c4.42 0 8 3.58 8 8v2.84c0 4.42-3.58 8-8 8h-837.7c-4.42 0-8-3.58-8-8z" stroke="#000" stroke-opacity="0" stroke-width="2" fill="#fff" fill-opacity="0"/><use xlink:href="#q" transform="matrix(1,0,0,1,407.1465527853436,69.89490897250087) translate(306.3615432098766 14.917037037037037)"/><use xlink:href="#r" transform="matrix(1,0,0,1,407.1465527853436,69.89490897250087) translate(350.4658641975309 14.917037037037037)"/><use xlink:href="#s" transform="matrix(1,0,0,1,407.1465527853436,69.89490897250087) translate(399.66895061728394 14.917037037037037)"/><use xlink:href="#t" transform="matrix(1,0,0,1,407.1465527853436,69.89490897250087) translate(412.1184362139918 14.917037037037037)"/><use xlink:href="#u" transform="matrix(1,0,0,1,407.1465527853436,69.89490897250087) translate(486.77286008230453 14.917037037037037)"/><use xlink:href="#v" transform="matrix(1,0,0,1,407.1465527853436,69.89490897250087) translate(512.2666872427983 14.917037037037037)"/><path d="M954.8 377c17.7 0 32 17.9 32 40s-14.3 40-32 40h-96c-17.66 0-32-17.9-32-40s14.34-40 32-40z" stroke="#000" stroke-opacity="0" fill="#0c7cba"/><use xlink:href="#w" transform="matrix(1,0,0,1,831.8126228829711,382.00000000000006) translate(13.074999999999996 27.799999999999997)"/><use xlink:href="#x" transform="matrix(1,0,0,1,831.8126228829711,382.00000000000006) translate(56.025 27.799999999999997)"/><use xlink:href="#y" transform="matrix(1,0,0,1,831.8126228829711,382.00000000000006) translate(103.975 27.799999999999997)"/><use xlink:href="#z" transform="matrix(1,0,0,1,831.8126228829711,382.00000000000006) translate(45.05 49.4)"/><path d="M358.9 508.03l-.43 3.2-1.25 3-2 2.6-2.6 2-3 1.25-3.2.42h-104.4l-3 .4-2.76 1.14-2.4 1.83-1.82 2.4-1.14 2.75-.4 3V788.9l-.42 3.22-1.24 3-2 2.6-2.6 2-3 1.23-3.2.42h-7.54v-1h7.47l3-.4 2.77-1.14 2.4-1.83 1.82-2.4 1.14-2.75.4-3V531.96l.42-3.2 1.24-3 2-2.6 2.6-2 3-1.25 3.2-.42h104.4l3-.4 2.77-1.14 2.4-1.83 1.82-2.4 1.14-2.75.4-3v-102.6h1zM210.5 801.37h-.5v-1h.5zM363.02 404.88h-9.27l4.64-14.26z" fill="#333"/><path d="M363.7 405.38h-10.64L358.4 389zm-9.26-1h7.9l-3.95-12.14z" fill="#333"/><path d="M755.48 965c0 12.15-55.97 22-125 22-69.04 0-125-9.85-125-22V789c0-12.15 55.96-22 125-22 69.03 0 125 9.85 125 22z" stroke="#0c7cba" stroke-width="4" fill="#fff"/><path d="M755.48 789c0 12.15-55.97 22-125 22-69.04 0-125-9.85-125-22" stroke="#0c7cba" stroke-width="4" fill="none"/><use xlink:href="#A" transform="matrix(1,0,0,1,510.47869298059925,816.0000000000002) translate(55.05 75.8)"/><use xlink:href="#B" transform="matrix(1,0,0,1,510.47869298059925,816.0000000000002) translate(111.95 75.8)"/><use xlink:href="#C" transform="matrix(1,0,0,1,510.47869298059925,816.0000000000002) translate(79.07499999999999 97.4)"/><path d="M487.1 876.5v1h-11.73v-1zm-276.6-6v-1h118.12v1zM210.5 870.5h-.5v-1h.5zM501.86 877l-14.26 4.64v-9.28z" fill="#333"/><path d="M503.48 877l-16.38 5.32v-10.64zm-15.38 3.95l12.14-3.95-12.14-3.95z" fill="#333"/><use xlink:href="#D" transform="matrix(1,0,0,1,328.6191594703281,859.2) translate(0.0049999999999954525 14.4)"/><use xlink:href="#E" transform="matrix(1,0,0,1,328.6191594703281,859.2) translate(47.955 14.4)"/><use xlink:href="#F" transform="matrix(1,0,0,1,328.6191594703281,859.2) translate(85.905 14.4)"/><path d="M1039.74 607h-43.12" stroke="#333" fill="none"/><path d="M1040.24 607l.02.5h-.53v-1h.54z" fill="#333"/><path d="M981.86 607l14.26-4.64v9.28z" stroke="#333" fill="#333"/><path d="M595.48 374.92c0-4.42 3.55-8.44 7.94-9L747.54 348c4.38-.56 7.94 2.58 7.94 7v104c0 4.42-3.58 8-8 8h-144c-4.42 0-8-3.58-8-8z" stroke="#000" stroke-opacity="0" stroke-width="2" fill="#83bbe5"/><use xlink:href="#G" transform="matrix(1,0,0,1,600.4786929805995,372) translate(9.125 16.19999999999999)"/><use xlink:href="#H" transform="matrix(1,0,0,1,600.4786929805995,372) translate(80.97500000000001 16.19999999999999)"/><use xlink:href="#I" transform="matrix(1,0,0,1,600.4786929805995,372) translate(4.599999999999994 37.79999999999999)"/><use xlink:href="#J" transform="matrix(1,0,0,1,600.4786929805995,372) translate(39.599999999999994 37.79999999999999)"/><use xlink:href="#K" transform="matrix(1,0,0,1,600.4786929805995,372) translate(118.5 37.79999999999999)"/><use xlink:href="#L" transform="matrix(1,0,0,1,600.4786929805995,372) translate(18.574999999999996 59.39999999999999)"/><use xlink:href="#M" transform="matrix(1,0,0,1,600.4786929805995,372) translate(101.42500000000001 59.39999999999999)"/><use xlink:href="#N" transform="matrix(1,0,0,1,600.4786929805995,372) translate(49.05 81)"/><path d="M826.3 417h-54.45" stroke="#333" fill="none"/><path d="M826.8 417l.03.5h-.53v-1h.54z" fill="#333"/><path d="M757.1 417l14.26-4.64v9.28z" stroke="#333" fill="#333"/><path d="M1058.15 365c0-4.42 3.58-8 8-8h144c4.4 0 8 3.58 8 8v104c0 4.42-3.6 8-8 8h-144c-4.42 0-8-3.58-8-8z" stroke="#0c7cba" stroke-width="4" fill="#fff"/><path d="M1074.15 357v120m128-120v120" stroke="#0c7cba" stroke-width="4" fill="none"/><use xlink:href="#O" transform="matrix(1,0,0,1,1083.146552785343,362.00000000000006) translate(19.099999999999994 47.8)"/><use xlink:href="#P" transform="matrix(1,0,0,1,1083.146552785343,362.00000000000006) translate(23.074999999999996 69.4)"/><path d="M987.3 417h52.46" stroke="#333" fill="none"/><path d="M987.33 417.5h-.55l.03-.5v-.5h.53z" fill="#333"/><path d="M1054.53 417l-14.27 4.64v-9.28z" stroke="#333" fill="#333"/><path d="M630.98 748.62h-1V607.88h1zm0-183.94h-1V467.5h1zM630.98 467.5h-1v-.5h1zM630.48 763.38l-4.64-14.26h9.27z" fill="#333"/><path d="M630.48 765l-5.32-16.38h10.64zm-3.95-15.38l3.95 12.14 3.95-12.14z" fill="#333"/><use xlink:href="#Q" transform="matrix(1,0,0,1,600.5286929805993,564.6759052657189) translate(8.48 14.4)"/><use xlink:href="#R" transform="matrix(1,0,0,1,600.5286929805993,564.6759052657189) translate(0.004999999999999005 36)"/><path d="M816.93 517.5H706.97l-3 .4-2.77 1.14-2.4 1.83-1.82 2.4-1.14 2.75-.4 3v222.83h-1V528.97l.42-3.2 1.25-3 2-2.6 2.6-2 3-1.25 3.2-.42h110.03zm321.72-12.47l-.42 3.2-1.25 3-2 2.6-2.6 2-3 1.25-3.2.42h-139.5v-1h139.43l3.03-.4 2.76-1.14 2.38-1.83 1.83-2.4 1.15-2.75.4-3V479.5h1zM1138.65 479.5h-1v-.5h1zM694.94 766.62l-4.63-14.27h9.28z" fill="#333"/><path d="M694.94 768.24l-5.32-16.4h10.65zm-3.94-15.4l3.94 12.16 3.95-12.15z" fill="#333"/><use xlink:href="#D" transform="matrix(1,0,0,1,816.925190178698,506.2) translate(0.0049999999999954525 14.4)"/><use xlink:href="#S" transform="matrix(1,0,0,1,816.925190178698,506.2) translate(47.955 14.4)"/><use xlink:href="#T" transform="matrix(1,0,0,1,816.925190178698,506.2) translate(134.755 14.4)"/><path d="M1268.24 494.33c-4.42 0-8-3.58-8-8V410.5c0-18.5 15-33.5 33.5-33.5s33.5 15 33.5 33.5v75.83c0 4.42-3.6 8-8 8z" stroke="#0c7cba" stroke-width="4" fill="#fff"/><use xlink:href="#U" transform="matrix(6.123233995736766e-17,-1,1,6.123233995736766e-17,1265.2393464902996,489.3333333333335) translate(29.549999999999997 21.299999999999997)"/><use xlink:href="#V" transform="matrix(6.123233995736766e-17,-1,1,6.123233995736766e-17,1265.2393464902996,489.3333333333335) translate(66.45 21.299999999999997)"/><use xlink:href="#W" transform="matrix(6.123233995736766e-17,-1,1,6.123233995736766e-17,1265.2393464902996,489.3333333333335) translate(24.525 42.9)"/><path d="M1172.3 478.83V515c0 6.63 5.36 12 12 12h97.44c6.62 0 12-5.37 12-12v-2.28" stroke="#333" fill="none"/><path d="M1172.8 478.85h-1v-.52h1z" fill="#333"/><path d="M1293.74 497.95l4.63 14.27h-9.27z" stroke="#333" fill="#333"/><path d="M1293.74 374.5c0-3.88-3.15-7.03-7.03-7.03h-50.17" stroke="#333" fill="none"/><path d="M1294.24 375.03l-.47-.03-.53.02v-.53h1z" fill="#333"/><path d="M1221.76 367.47l14.27-4.63v9.27z" stroke="#333" fill="#333"/><path d="M437.7 811.93l.4 3.02 1.15 2.75 1.83 2.4 2.4 1.83 2.75 1.14 3 .4h37.86v1h-37.92l-3.2-.43-3-1.24-2.6-2-2-2.6-1.25-3-.42-3.2V615h1zm0-261.74h-1V389.5h1zM437.7 389.5h-1v-.5h1zM501.86 823.96l-14.27 4.64v-9.27z" fill="#333"/><path d="M503.48 823.96l-16.4 5.33v-10.66zm-15.4 3.95l12.16-3.94-12.15-3.94z" fill="#333"/><use xlink:href="#X" transform="matrix(1,0,0,1,364.2846801454933,550.1851599942678) translate(23.50500000000001 14.4)"/><use xlink:href="#Y" transform="matrix(1,0,0,1,364.2846801454933,550.1851599942678) translate(55.40500000000001 14.4)"/><use xlink:href="#Z" transform="matrix(1,0,0,1,364.2846801454933,550.1851599942678) translate(0.0049999999999954525 36)"/><use xlink:href="#aa" transform="matrix(1,0,0,1,364.2846801454933,550.1851599942678) translate(50.955 36)"/><use xlink:href="#ab" transform="matrix(1,0,0,1,364.2846801454933,550.1851599942678) translate(85.955 36)"/><use xlink:href="#ac" transform="matrix(1,0,0,1,364.2846801454933,550.1851599942678) translate(32.505 57.6)"/><use xlink:href="#F" transform="matrix(1,0,0,1,364.2846801454933,550.1851599942678) translate(52.505 57.6)"/><use xlink:href="#ad" transform="matrix(1,0,0,1,437.2096801454934,771.0459837465619) translate(0.005 14.4)"/><path d="M1460.24 953.67c0 6.62-26.86 12-60 12s-60-5.38-60-12v-96c0-6.63 26.86-12 60-12s60 5.37 60 12z" stroke="#0c7cba" stroke-width="4" fill="#fff"/><path d="M1460.24 857.67c0 6.62-26.86 12-60 12s-60-5.38-60-12" stroke="#0c7cba" stroke-width="4" fill="none"/><use xlink:href="#ae" transform="matrix(1,0,0,1,1345.2393464902998,874.666666666667) translate(22.549999999999997 35.8)"/><use xlink:href="#af" transform="matrix(1,0,0,1,1345.2393464902998,874.666666666667) translate(13.049999999999997 57.4)"/><path d="M410.24 304.5V199c0-6.63 5.37-12 12-12h179.62" stroke="#333" fill="none"/><path d="M410.74 305h-1v-.5h1z" fill="#333"/><path d="M616.62 187l-14.26 4.64v-9.28z" stroke="#333" fill="#333"/><path d="M882.54 154.73c-1.14-4.27 1.52-7.73 5.94-7.73h204c4.42 0 7.08 3.46 5.94 7.73l-17.2 64.54c-1.15 4.27-5.66 7.73-10.07 7.73H909.8c-4.4 0-8.9-3.46-10.05-7.73z" stroke="#0c7cba" stroke-width="4" fill="#fff"/><use xlink:href="#ag" transform="matrix(1,0,0,1,885.4786929805996,152) translate(56.55 38.6)"/><use xlink:href="#ah" transform="matrix(1,0,0,1,885.4786929805996,152) translate(118.45 38.6)"/><path d="M782.74 187h89.95" stroke="#333" fill="none"/><path d="M782.75 187.5h-.5v-1h.5z" fill="#333"/><path d="M887.46 187l-14.27 4.64v-9.28z" stroke="#333" fill="#333"/><path d="M654.92 287.5H583.6l-3.03.4-2.75 1.14-2.4 1.83-1.83 2.4-1.15 2.75-.4 3V751.3h-1V298.96l.43-3.2 1.24-3 2-2.6 2.6-2 3-1.25 3.2-.42h71.4zm286.85-12.47l-.42 3.2-1.24 3-1.98 2.6-2.6 2-3 1.25-3.2.42h-73.6v-1h73.52l3.02-.4 2.75-1.14 2.4-1.83 1.84-2.4 1.14-2.75.4-3V229.5h1zM941.77 229.5h-1v-.5h1zM571.56 766.05l-4.64-14.26h9.27z" fill="#333"/><path d="M571.56 767.67l-5.33-16.38h10.65zm-3.95-15.38l3.96 12.13 3.94-12.14z" fill="#333"/><use xlink:href="#ai" transform="matrix(1,0,0,1,654.9215347505659,276.2) translate(0.0049999999999954525 14.4)"/><use xlink:href="#aj" transform="matrix(1,0,0,1,654.9215347505659,276.2) translate(60.004999999999995 14.4)"/><use xlink:href="#ak" transform="matrix(1,0,0,1,654.9215347505659,276.2) translate(125.855 14.4)"/><path d="M1391.48 186.92l3 1.24 2.6 2 2 2.6 1.24 3 .42 3.2V827.3h-1V199.03l-.4-3-1.14-2.77-1.83-2.4-2.4-1.82-2.75-1.14-3-.4h-84.4v-1h84.45zm-299.1.58v-1h74.7v1z" fill="#333"/><path d="M1092.4 187.5h-.65l.27-1h.37zM1400.24 842.05l-4.64-14.27h9.27z" fill="#333"/><path d="M1400.24 843.67l-5.32-16.4h10.64zm-3.95-15.4l3.94 12.16 3.95-12.15z" fill="#333"/><use xlink:href="#al" transform="matrix(1,0,0,1,1167.076066979862,176.2000000011331) translate(0.0049999999999954525 14.4)"/><use xlink:href="#am" transform="matrix(1,0,0,1,1167.076066979862,176.2000000011331) translate(44.955 14.4)"/><use xlink:href="#an" transform="matrix(1,0,0,1,1167.076066979862,176.2000000011331) translate(78.85499999999999 14.4)"/><path d="M1040.24 853.67c0-4.42 3.58-8 8-8h144c4.42 0 8 3.58 8 8v104c0 4.4-3.58 8-8 8h-144c-4.42 0-8-3.6-8-8z" stroke="#0c7cba" stroke-width="4" fill="#fff"/><path d="M1056.24 845.67v120m128-120v120" stroke="#0c7cba" stroke-width="4" fill="none"/><use xlink:href="#ao" transform="matrix(1,0,0,1,1065.2393464902998,850.666666666667) translate(28.049999999999997 47.8)"/><use xlink:href="#ap" transform="matrix(1,0,0,1,1065.2393464902998,850.666666666667) translate(26.549999999999997 69.4)"/><path d="M1348.27 286.5l3.2.42 3 1.24 2.6 2 2 2.6 1.25 3 .42 3.2V791.7l-.42 3.2-1.24 3-2 2.6-2.6 2-3 1.25-3.2.42h-216l-3.02.4-2.76 1.13-2.4 1.84-1.82 2.4-1.15 2.74-.4 3.02v11.58h-1v-11.65l.43-3.2 1.24-3 2-2.6 2.6-2 3-1.24 3.2-.43h216l3.02-.4 2.76-1.14 2.4-1.83 1.82-2.4 1.14-2.75.4-3.02v-492.6l-.4-3-1.14-2.77-1.83-2.4-2.4-1.82-2.75-1.14-3-.4h-99.35v-1zm-356.9-8.52l1.15 2.76 1.83 2.4 2.4 1.82 2.75 1.14 3 .4h87.57v1h-87.62l-3.22-.42-3-1.24-2.6-2-2-2.6-1.23-3-.42-3.2V229.5h1v45.47zM990.98 229.5h-1v-.5h1zM1120.24 842.05l-4.64-14.27h9.27z" fill="#333"/><path d="M1120.24 843.67l-5.32-16.4h10.64zm-3.95-15.4l3.94 12.16 3.95-12.15z" fill="#333"/><use xlink:href="#aq" transform="matrix(1,0,0,1,1090.0725904375336,276.20000000000005) translate(0.0049999999999954525 14.4)"/><use xlink:href="#ar" transform="matrix(1,0,0,1,1090.0725904375336,276.20000000000005) translate(39.955 14.4)"/><use xlink:href="#as" transform="matrix(1,0,0,1,1090.0725904375336,276.20000000000005) translate(125.805 14.4)"/><path d="M1229.24 933.95h-26.5v-1h26.5zm92.62 0h-35.72v-1h35.72z" fill="#333"/><path d="M1202.75 933.95h-.5v-1h.5zM1336.62 933.45l-14.26 4.63v-9.27z" fill="#333"/><path d="M1338.24 933.45l-16.38 5.32v-10.65zm-15.38 3.94l12.14-3.95-12.14-3.95z" fill="#333"/><use xlink:href="#at" transform="matrix(1,0,0,1,1229.2399582206267,911.8475130765672) translate(8.48 14.4)"/><use xlink:href="#au" transform="matrix(1,0,0,1,1229.2399582206267,911.8475130765672) translate(0.004999999999999005 36)"/><path d="M797.46 882.67h-23.6v-1h23.6zm240.28 0h-39.48v-1h39.48zM1038.24 882.67h-.5v-1h.5zM773.36 886.8l-14.26-4.63 14.26-4.64z" fill="#333"/><path d="M773.86 887.5l-16.38-5.33 16.38-5.32zm-13.14-5.33l12.14 3.95v-7.9z" fill="#333"/><use xlink:href="#ai" transform="matrix(1,0,0,1,797.4588158157277,871.3700912069357) translate(0.0049999999999954525 14.4)"/><use xlink:href="#aj" transform="matrix(1,0,0,1,797.4588158157277,871.3700912069357) translate(60.004999999999995 14.4)"/><use xlink:href="#ak" transform="matrix(1,0,0,1,797.4588158157277,871.3700912069357) translate(125.855 14.4)"/><path d="M1037.74 920.08H918.38c-6.4 0-11.57 5.18-11.57 11.57" stroke="#333" fill="none"/><path d="M1038.24 920.58h-.5v-1h.5z" fill="#333"/><path d="M906.8 946.42l-4.62-14.27h9.27z" stroke="#333" fill="#333"/><path d="M130.5 1174.97l.4 3 1.14 2.77 1.83 2.4 2.4 1.82 2.75 1.14 3 .4H330v1h-188l-3.22-.42-3-1.24-2.6-2-2-2.6-1.24-3-.42-3.2V906.37h1z" fill="#333"/><path d="M330.48 1187l.02.5h-.53v-1h.54zM134.64 905.88h-9.28l4.64-14.26z" fill="#333"/><path d="M135.32 906.38h-10.64L130 890zm-9.27-1h7.9L130 893.24z" fill="#333"/><path d="M686.34 987.08V1005c0 6.63 5.37 12 12 12h107.2" stroke="#333" fill="none"/><path d="M686.84 987.1h-1v-.47l1-.1z" fill="#333"/><path d="M820.3 1017l-14.25 4.64v-9.28z" stroke="#333" fill="#333"/><path d="M1120.24 1055c0-4.42 3.58-8 8-8h144c4.42 0 8 3.58 8 8v104c0 4.42-3.58 8-8 8h-144c-4.42 0-8-3.58-8-8z" stroke="#0c7cba" stroke-width="4" fill="#fff"/><path d="M1136.24 1047v120m128-120v120" stroke="#0c7cba" stroke-width="4" fill="none"/><use xlink:href="#av" transform="matrix(1,0,0,1,1145.2393464902998,1052) translate(19 37)"/><use xlink:href="#aw" transform="matrix(1,0,0,1,1145.2393464902998,1052) translate(8.099999999999994 58.6)"/><use xlink:href="#ax" transform="matrix(1,0,0,1,1145.2393464902998,1052) translate(70 58.6)"/><use xlink:href="#ay" transform="matrix(1,0,0,1,1145.2393464902998,1052) translate(6.549999999999997 80.20000000000002)"/><use xlink:href="#az" transform="matrix(1,0,0,1,1145.2393464902998,1052) translate(67.5 80.20000000000002)"/><path d="M1400.24 968.17V1095c0 6.63-5.37 12-12 12h-89.62" stroke="#333" fill="none"/><path d="M1400.23 967.67l.5-.02v.53h-1v-.53z" fill="#333"/><path d="M1283.86 1107l14.26-4.64v9.28z" stroke="#333" fill="#333"/><path d="M630.98 1094.97l.4 3 1.14 2.77 1.83 2.4 2.4 1.82 2.75 1.14 3 .4h11.73v1h-11.78l-3.22-.42-3-1.24-2.6-2-2-2.6-1.23-3-.42-3.2v-89.66h1zm486.76 11.53v1H863.08v-1zM1118.24 1107.5h-.5v-1h.5zM635.1 1004.88h-9.26l4.64-14.26z" fill="#333"/><path d="M635.8 1005.38h-10.64l5.32-16.38zm-9.27-1h7.9l-3.95-12.14z" fill="#333"/><use xlink:href="#D" transform="matrix(1,0,0,1,654.2325145597454,1096.2) translate(0.0049999999999954525 14.4)"/><use xlink:href="#aA" transform="matrix(1,0,0,1,654.2325145597454,1096.2) translate(47.955 14.4)"/><use xlink:href="#aB" transform="matrix(1,0,0,1,654.2325145597454,1096.2) translate(136.905 14.4)"/><path d="M620.24 135c0-4.42 3.58-8 8-8h144c4.42 0 8 3.58 8 8v104c0 4.42-3.58 8-8 8h-144c-4.42 0-8-3.58-8-8z" stroke="#0c7cba" stroke-width="4" fill="#fff"/><path d="M636.24 127v120m128-120v120" stroke="#0c7cba" stroke-width="4" fill="none"/><use xlink:href="#aC" transform="matrix(1,0,0,1,645.2393464902997,132) translate(22.5 47.8)"/><use xlink:href="#aD" transform="matrix(1,0,0,1,645.2393464902997,132) translate(24.574999999999996 69.4)"/><path d="M250 326.02v-212c0-4.42 3.58-8 8-8h32v220zM250 326.02h40v360h-40zM250 686.02h40v520h-40zM290 1447h-32c-4.42 0-8-3.58-8-8v-232.98h40z" stroke="#0c7cba" stroke-width="4" fill="#fff"/><path d="M290 106.02h1252c4.42 0 8 3.58 8 8v212H290zM290 326.02h1260v360H290zM290 686.02h1260v520H290zM1550 1206.02V1439c0 4.42-3.58 8-8 8H290v-240.98z" stroke="#0c7cba" stroke-width="4" fill="none"/><use xlink:href="#aE" transform="matrix(-1.8369701987210297e-16,-1,1,-1.8369701987210297e-16,250.00000000000003,326.0201404258671) translate(43.099999999999994 23.6)"/><use xlink:href="#aF" transform="matrix(-1.8369701987210297e-16,-1,1,-1.8369701987210297e-16,250.00000000000003,326.0201404258671) translate(97 23.6)"/><use xlink:href="#aG" transform="matrix(-1.8369701987210297e-16,-1,1,-1.8369701987210297e-16,250.00000000000006,686.0201404258671) translate(39.44999999999999 23.6)"/><use xlink:href="#aH" transform="matrix(-1.8369701987210297e-16,-1,1,-1.8369701987210297e-16,250.00000000000006,686.0201404258671) translate(94.25 23.6)"/><use xlink:href="#aI" transform="matrix(-1.8369701987210297e-16,-1,1,-1.8369701987210297e-16,250.00000000000006,686.0201404258671) translate(135.2 23.6)"/><use xlink:href="#aJ" transform="matrix(-1.8369701987210297e-16,-1,1,-1.8369701987210297e-16,250.00000000000006,686.0201404258671) translate(179.79999999999998 23.6)"/><use xlink:href="#aK" transform="matrix(-1.8369701987210297e-16,-1,1,-1.8369701987210297e-16,250.00000000000006,686.0201404258671) translate(268.65 23.6)"/><g><use xlink:href="#aL" transform="matrix(-1.8369701987210297e-16,-1,1,-1.8369701987210297e-16,250,1206.020140425867) translate(239.7 23.6)"/></g><g><use xlink:href="#aM" transform="matrix(-1.8369701987210297e-16,-1,1,-1.8369701987210297e-16,250.00000000000023,1446.9999999999998) translate(107.55 23.6)"/></g><path d="M302.3 314.73c-1.14-4.27 1.52-7.73 5.94-7.73h204c4.42 0 7.08 3.46 5.94 7.73l-17.2 64.54c-1.15 4.27-5.66 7.73-10.07 7.73H329.58c-4.42 0-8.92-3.46-10.06-7.73z" stroke="#0c7cba" stroke-width="4" fill="#fff"/><g><use xlink:href="#aN" transform="matrix(1,0,0,1,305.2393464902996,312) translate(13.599999999999994 27.799999999999997)"/><use xlink:href="#aO" transform="matrix(1,0,0,1,305.2393464902996,312) translate(68.55 27.799999999999997)"/><use xlink:href="#aP" transform="matrix(1,0,0,1,305.2393464902996,312) translate(119.5 27.799999999999997)"/><use xlink:href="#aQ" transform="matrix(1,0,0,1,305.2393464902996,312) translate(136.5 27.799999999999997)"/><use xlink:href="#aR" transform="matrix(1,0,0,1,305.2393464902996,312) translate(42.62499999999999 49.4)"/><use xlink:href="#aS" transform="matrix(1,0,0,1,305.2393464902996,312) translate(68.57499999999999 49.4)"/><use xlink:href="#aT" transform="matrix(1,0,0,1,305.2393464902996,312) translate(106.525 49.4)"/></g><path d="M1168.24 567c17.67 0 32 17.9 32 40s-14.33 40-32 40h-96c-17.67 0-32-17.9-32-40s14.33-40 32-40z" stroke="#000" stroke-opacity="0" fill="#0c7cba"/><g><use xlink:href="#aU" transform="matrix(1,0,0,1,1045.2393464902998,572) translate(24.574999999999996 27.799999999999997)"/><use xlink:href="#aV" transform="matrix(1,0,0,1,1045.2393464902998,572) translate(92.475 27.799999999999997)"/><use xlink:href="#aW" transform="matrix(1,0,0,1,1045.2393464902998,572) translate(52.025 49.4)"/></g><path d="M820.24 574.92c0-4.42 3.55-8.44 7.94-9L972.3 548c4.4-.56 7.94 2.58 7.94 7v104c0 4.42-3.58 8-8 8h-144c-4.42 0-8-3.58-8-8z" stroke="#000" stroke-opacity="0" stroke-width="2" fill="#83bbe5"/><g><use xlink:href="#G" transform="matrix(1,0,0,1,825.2393464902996,572) translate(16.099999999999994 16.19999999999999)"/><use xlink:href="#aX" transform="matrix(1,0,0,1,825.2393464902996,572) translate(87.95 16.19999999999999)"/><use xlink:href="#I" transform="matrix(1,0,0,1,825.2393464902996,572) translate(4.599999999999994 37.79999999999999)"/><use xlink:href="#J" transform="matrix(1,0,0,1,825.2393464902996,572) translate(39.599999999999994 37.79999999999999)"/><use xlink:href="#K" transform="matrix(1,0,0,1,825.2393464902996,572) translate(118.5 37.79999999999999)"/><use xlink:href="#aY" transform="matrix(1,0,0,1,825.2393464902996,572) translate(19.1 59.39999999999999)"/><use xlink:href="#aZ" transform="matrix(1,0,0,1,825.2393464902996,572) translate(62 59.39999999999999)"/><use xlink:href="#M" transform="matrix(1,0,0,1,825.2393464902996,572) translate(100.9 59.39999999999999)"/><use xlink:href="#ba" transform="matrix(1,0,0,1,825.2393464902996,572) translate(25.049999999999997 81)"/><use xlink:href="#bb" transform="matrix(1,0,0,1,825.2393464902996,572) translate(93 81)"/></g><path d="M458.48 1147c17.67 0 32 17.9 32 40s-14.33 40-32 40h-96c-17.67 0-32-17.9-32-40s14.33-40 32-40z" stroke="#000" stroke-opacity="0" fill="#0c7cba"/><g><use xlink:href="#bc" transform="matrix(1,0,0,1,335.4786929805993,1152) translate(36.525 17)"/><use xlink:href="#bd" transform="matrix(1,0,0,1,335.4786929805993,1152) translate(10.049999999999997 38.6)"/><use xlink:href="#be" transform="matrix(1,0,0,1,335.4786929805993,1152) translate(84 38.6)"/><use xlink:href="#bf" transform="matrix(1,0,0,1,335.4786929805993,1152) translate(12.124999999999993 60.2)"/><use xlink:href="#d" transform="matrix(1,0,0,1,335.4786929805993,1152) translate(77.025 60.2)"/></g><path d="M1120.24 1245c0-4.42 3.58-8 8-8h144c4.42 0 8 3.58 8 8v104c0 4.42-3.58 8-8 8h-144c-4.42 0-8-3.58-8-8z" stroke="#0c7cba" stroke-width="4" fill="#fff"/><path d="M1136.24 1237v120m128-120v120" stroke="#0c7cba" stroke-width="4" fill="none"/><g><use xlink:href="#bg" transform="matrix(1,0,0,1,1145.2393464902998,1242) translate(7.949999999999996 58.6)"/><use xlink:href="#bh" transform="matrix(1,0,0,1,1145.2393464902998,1242) translate(53.15 58.6)"/></g><path d="M1200.24 1169.5v49.12" stroke="#333" fill="none"/><path d="M1200.74 1169.5h-1v-.5h1z" fill="#333"/><path d="M1200.24 1233.38l-4.64-14.26h9.27z" stroke="#333" fill="#333"/><path d="M807.8 735.04h-62.03l-3 .4-2.77 1.14-2.4 1.83-1.82 2.4-1.14 2.76-.4 3.02v11.58h-1V746.5l.42-3.2 1.25-3 2-2.6 2.6-2 3-1.24 3.2-.42h62.1zm92.94-12.46l-.42 3.2-1.24 3-2 2.6-2.6 2-3 1.24-3.2.42h-34.54v-1h34.47l3.02-.4 2.76-1.13 2.4-1.83 1.82-2.4 1.14-2.74.4-3.02v-55h1zM900.74 667.5h-1v-.5h1zM733.74 772.93l-4.63-14.27h9.28z" fill="#333"/><path d="M733.74 774.54l-5.32-16.38h10.65zm-3.94-15.38l3.94 12.15 3.95-12.14z" fill="#333"/><g><use xlink:href="#Q" transform="matrix(1,0,0,1,807.78733170572,712.9431808524286) translate(1.504999999999999 14.4)"/><use xlink:href="#bi" transform="matrix(1,0,0,1,807.78733170572,712.9431808524286) translate(0.004999999999999005 36)"/></g><path d="M826.8 1315c0-4.42 3.6-8 8-8h144c4.43 0 8 3.58 8 8v104c0 4.42-3.57 8-8 8h-144c-4.4 0-8-3.58-8-8z" stroke="#0c7cba" stroke-width="4" fill="#fff"/><path d="M842.8 1307v120m128-120v120" stroke="#0c7cba" stroke-width="4" fill="none"/><g><use xlink:href="#bj" transform="matrix(1,0,0,1,851.8126228829711,1312) translate(38.525 47.8)"/><use xlink:href="#bk" transform="matrix(1,0,0,1,851.8126228829711,1312) translate(4.099999999999994 69.4)"/></g><path d="M569.86 1354.97l.4 3 1.14 2.77 1.83 2.4 2.4 1.82 2.75 1.14 3 .4h15.44v1h-15.5l-3.2-.42-3-1.24-2.6-2-2-2.6-1.24-3-.42-3.2V1002.5h1zm254.45 11.53v1h-68.73v-1z" fill="#333"/><path d="M824.8 1367.5h-.5v-1h.5zM574 1002h-9.28l4.64-14.27z" fill="#333"/><path d="M574.68 1002.5h-10.64l5.32-16.4zm-9.27-1h7.9l-3.94-12.15z" fill="#333"/><g><use xlink:href="#D" transform="matrix(1,0,0,1,596.8195861751177,1356.2) translate(0.0049999999999954525 14.4)"/><use xlink:href="#bl" transform="matrix(1,0,0,1,596.8195861751177,1356.2) translate(47.955 14.4)"/></g><path d="M1454 1397.13l-.43 3.2-1.24 3-2 2.6-2.6 2-3 1.24-3.2.42H1005.2v-1h436.26l3-.4 2.77-1.14 2.4-1.84 1.82-2.4 1.14-2.74.4-3.02V961.8h1z" fill="#333"/><path d="M1454 961.82h-1v-.33l1-.38zM1004.7 1413.73l-14.27-4.64 14.27-4.64z" fill="#333"/><path d="M1005.2 1414.42l-16.4-5.33 16.4-5.33zm-13.15-5.33l12.15 3.94v-7.9z" fill="#333"/><path d="M1429.2 966.52V1285c0 6.63-5.36 12-12 12h-118.58" stroke="#333" fill="none"/><path d="M1429.7 966.53h-1v-.46l1-.1z" fill="#333"/><path d="M1283.86 1297l14.26-4.64v9.28z" stroke="#333" fill="#333"/><path d="M1079.08 802.7l3 1.23 2.6 2 2 2.6 1.24 3 .42 3.2v12.55h-1V814.8l-.4-3-1.14-2.77-1.83-2.4-2.4-1.82-2.75-1.14-3-.4h-34.56v-1h34.6zm-321.1.57v-1h127.48v1z" fill="#333"/><path d="M758 803.27h-.52v-1h.5zM1087.84 842.05l-4.64-14.27h9.28z" fill="#333"/><path d="M1087.84 843.67l-5.32-16.4h10.64zm-3.95-15.4l3.94 12.16 3.95-12.15z" fill="#333"/><g><use xlink:href="#bm" transform="matrix(1,0,0,1,885.4557278941865,791.9697764151579) translate(0.0049999999999954525 14.4)"/><use xlink:href="#S" transform="matrix(1,0,0,1,885.4557278941865,791.9697764151579) translate(34.004999999999995 14.4)"/><use xlink:href="#T" transform="matrix(1,0,0,1,885.4557278941865,791.9697764151579) translate(120.805 14.4)"/></g><path d="M1029.08 1324.04h-23.88v-1h23.88zm88.66 0h-39.76v-1h39.76zM1118.24 1324.04h-.5v-1h.5zM1004.7 1328.18l-14.27-4.64 14.27-4.63z" fill="#333"/><path d="M1005.2 1328.87l-16.4-5.33 16.4-5.32zm-13.15-5.33l12.15 3.95v-7.9z" fill="#333"/><g><use xlink:href="#bn" transform="matrix(1,0,0,1,1029.0759846866354,1312.7430149588295) translate(0.004999999999999005 14.4)"/></g><path d="M602.84 1241.86l.4 3.02 1.14 2.75 1.83 2.4 2.4 1.83 2.76 1.14 3 .4h14.8v1H614.3l-3.2-.43-3-1.24-2.6-2-2-2.6-1.24-3-.42-3.2v-253h1zm499.02 11.54v1H869.9v-1zM602.84 988.43v.5h-1v-.52zM1116.62 1253.9l-14.26 4.63v-9.27z" fill="#333"/><path d="M1118.24 1253.9l-16.38 5.32v-10.65zm-15.38 3.94l12.14-3.94-12.14-3.95z" fill="#333"/><g><use xlink:href="#bo" transform="matrix(1,0,0,1,629.1524506559838,1243.0955322771626) translate(0.0049999999999954525 14.4)"/><use xlink:href="#bp" transform="matrix(1,0,0,1,629.1524506559838,1243.0955322771626) translate(81.905 14.4)"/><use xlink:href="#aa" transform="matrix(1,0,0,1,629.1524506559838,1243.0955322771626) translate(133.805 14.4)"/><use xlink:href="#aB" transform="matrix(1,0,0,1,629.1524506559838,1243.0955322771626) translate(168.805 14.4)"/></g><path d="M1249.68 880.52h-31.06v-1h31.06zm88.06 0h-11.16v-1h11.16zM1338.24 880.52h-.5v-1h.5zM1218.12 884.66l-14.26-4.64 14.26-4.64z" fill="#333"/><path d="M1218.62 885.34l-16.38-5.32 16.38-5.32zm-13.14-5.32l12.14 3.95v-7.9z" fill="#333"/><g><use xlink:href="#bq" transform="matrix(1,0,0,1,1249.6848217814572,858.4198250072238) translate(0.005000000000002558 14.4)"/><use xlink:href="#br" transform="matrix(1,0,0,1,1249.6848217814572,858.4198250072238) translate(24.005000000000006 36)"/></g><path d="M907.3 1249.26l-3.13 1.03-1.63 2.2-.2 1.36.86 2.68 2.23 1.63 1.88.3v30.15h-1v-29.3l-1.27-.2-2.68-1.96-1.05-3.22.3-1.82 1.95-2.68 2.76-.9v-100.36h1zm0-146.9l-3.13 1.03-1.63 2.22-.2 1.34.86 2.68 2.23 1.63 1.88.3v17.94h-1v-17.07l-1.27-.2-2.68-1.97-1.05-3.22.3-1.82 1.95-2.68 2.76-.9v-15.18h1z" fill="#333"/><path d="M907.3 1086.48h-1v-.5l1-.03zM906.8 1303.38l-4.62-14.26h9.27z" fill="#333"/><path d="M906.8 1305l-5.3-16.38h10.64zm-3.93-15.38l3.94 12.14 3.96-12.14z" fill="#333"/><g><use xlink:href="#bs" transform="matrix(1,0,0,1,895.1675612108571,1129.5139583209314) translate(0.005000000000000782 12.444444444444446)"/></g><defs><path fill="#fff" d="M194-120c59 52 2 134-86 124-53-6-90-18-98-63l31-7c8 30 29 43 70 43 46 0 84-17 71-62-32-43-135-20-137-98-3-89 178-90 191-16l-30 9c-8-48-127-53-127 5 0 53 81 35 115 65" id="bt"/><path fill="#fff" d="M30-147c31-64 166-65 159 27C183-49 158 1 86 4 9 8 1-88 30-147zM88-20c53 0 68-48 68-100 0-31-11-51-44-50-52 1-68 46-68 97 0 32 13 53 44 53" id="bu"/><path fill="#fff" d="M248-111c6-24 9-61-24-58-72 9-57 108-77 169h-31l26-142c3-37-50-30-64-10C52-115 50-51 37 0H6l36-190h30c-1 10-6 24-4 32 13-43 101-52 105 5 13-22 29-41 61-41 90 0 28 129 23 194h-31" id="bv"/><path fill="#fff" d="M111-194c62-3 86 47 72 106H45c-7 38 6 69 45 68 27-1 43-14 53-32l24 11C152-15 129 4 87 4 38 3 12-23 12-71c0-70 32-119 99-123zm44 81c14-66-71-72-95-28-4 8-8 17-11 28h106" id="bw"/><path fill="#fff" d="M67-158c22-48 132-52 116 29L158 0h-32l25-140c3-38-53-32-70-12C52-117 51-52 38 0H6l36-190h30" id="bx"/><g id="a"><use transform="matrix(0.05,0,0,0.05,0,0)" xlink:href="#bt"/><use transform="matrix(0.05,0,0,0.05,12,0)" xlink:href="#bu"/><use transform="matrix(0.05,0,0,0.05,22,0)" xlink:href="#bv"/><use transform="matrix(0.05,0,0,0.05,36.95,0)" xlink:href="#bw"/><use transform="matrix(0.05,0,0,0.05,46.95,0)" xlink:href="#bu"/><use transform="matrix(0.05,0,0,0.05,56.95,0)" xlink:href="#bx"/><use transform="matrix(0.05,0,0,0.05,66.95,0)" xlink:href="#bw"/></g><path fill="#fff" d="M66-151c12-25 30-51 66-40l-6 26C45-176 58-65 38 0H6l36-190h30" id="by"/><path fill="#fff" d="M133-28C103 26-5 8 13-77c13-62 24-115 90-117 29-1 46 15 56 35l19-102h32L160 0h-30zM45-64c-2 27 10 43 35 43 54-1 69-50 69-103 0-29-15-46-42-46-53-1-58 58-62 106" id="bz"/><path fill="#fff" d="M55-144c13 50 104 24 104 88C159 21 15 23 1-39l26-10c6 40 102 42 102-4-13-50-104-23-104-87 0-71 143-71 148-8l-29 4c-5-35-85-37-89 0" id="bA"/><g id="b"><use transform="matrix(0.05,0,0,0.05,0,0)" xlink:href="#bu"/><use transform="matrix(0.05,0,0,0.05,10,0)" xlink:href="#by"/><use transform="matrix(0.05,0,0,0.05,15.949999999999998,0)" xlink:href="#bz"/><use transform="matrix(0.05,0,0,0.05,25.950000000000003,0)" xlink:href="#bw"/><use transform="matrix(0.05,0,0,0.05,35.95,0)" xlink:href="#by"/><use transform="matrix(0.05,0,0,0.05,41.900000000000006,0)" xlink:href="#bA"/></g><path fill="#fff" d="M44-68c0 29 11 47 38 47 30 0 42-19 51-41l28 9C148-21 126 4 82 4 31 4 10-29 12-85c3-77 74-140 146-93 12 8 15 23 18 40l-31 5c-1-22-13-36-36-36-52 0-65 49-65 101" id="bB"/><path fill="#fff" d="M6 0l50-261h32L37 0H6" id="bC"/><path fill="#fff" d="M165-48c-4 18 1 34 23 27l-3 20c-29 8-62 0-52-35h-2C116-14 99 4 63 4 30 4 8-16 8-49c0-68 71-67 138-67 10-26 0-56-31-54-26 1-42 9-47 31l-32-5c8-67 160-71 144 15-5 28-9 54-15 81zM42-50c3 52 80 24 89-6 7-12 7-24 11-38-47 1-103-4-100 44" id="bD"/><path fill="#fff" d="M50-231l6-30h32l-6 30H50zM6 0l37-190h31L37 0H6" id="bE"/><path fill="#fff" d="M76-167L44 0H12l33-167H18l4-23h27c3-47 25-81 82-69l-4 24c-35-8-44 15-46 45h37l-5 23H76" id="bF"/><path fill="#fff" d="M51-54c-9 22 5 41 31 30L79-1C43 14 10-4 19-52l22-115H19l5-23h22l19-43h21l-9 43h35l-4 23H73" id="bG"/><g id="c"><use transform="matrix(0.05,0,0,0.05,0,0)" xlink:href="#bB"/><use transform="matrix(0.05,0,0,0.05,9,0)" xlink:href="#bC"/><use transform="matrix(0.05,0,0,0.05,12.949999999999998,0)" xlink:href="#bD"/><use transform="matrix(0.05,0,0,0.05,22.95,0)" xlink:href="#bA"/><use transform="matrix(0.05,0,0,0.05,31.950000000000003,0)" xlink:href="#bA"/><use transform="matrix(0.05,0,0,0.05,40.95,0)" xlink:href="#bE"/><use transform="matrix(0.05,0,0,0.05,44.900000000000006,0)" xlink:href="#bF"/><use transform="matrix(0.05,0,0,0.05,49.900000000000006,0)" xlink:href="#bE"/><use transform="matrix(0.05,0,0,0.05,53.85,0)" xlink:href="#bB"/><use transform="matrix(0.05,0,0,0.05,62.85,0)" xlink:href="#bD"/><use transform="matrix(0.05,0,0,0.05,72.85000000000001,0)" xlink:href="#bG"/><use transform="matrix(0.05,0,0,0.05,77.85000000000001,0)" xlink:href="#bE"/><use transform="matrix(0.05,0,0,0.05,81.80000000000001,0)" xlink:href="#bu"/><use transform="matrix(0.05,0,0,0.05,91.80000000000001,0)" xlink:href="#bx"/></g><g id="d"><use transform="matrix(0.05,0,0,0.05,0,0)" xlink:href="#bv"/><use transform="matrix(0.05,0,0,0.05,14.950000000000001,0)" xlink:href="#bE"/><use transform="matrix(0.05,0,0,0.05,18.900000000000002,0)" xlink:href="#bA"/><use transform="matrix(0.05,0,0,0.05,27.900000000000002,0)" xlink:href="#bA"/><use transform="matrix(0.05,0,0,0.05,36.900000000000006,0)" xlink:href="#bE"/><use transform="matrix(0.05,0,0,0.05,40.85000000000001,0)" xlink:href="#bu"/><use transform="matrix(0.05,0,0,0.05,50.85000000000001,0)" xlink:href="#bx"/></g><g id="e"><use transform="matrix(0.05,0,0,0.05,0,0)" xlink:href="#bt"/><use transform="matrix(0.05,0,0,0.05,12,0)" xlink:href="#bw"/><use transform="matrix(0.05,0,0,0.05,22,0)" xlink:href="#bC"/><use transform="matrix(0.05,0,0,0.05,25.950000000000003,0)" xlink:href="#bw"/><use transform="matrix(0.05,0,0,0.05,35.95,0)" xlink:href="#bB"/><use transform="matrix(0.05,0,0,0.05,44.95,0)" xlink:href="#bG"/></g><path fill="#fff" d="M103-194c29 0 47 14 56 36 2-11 5-23 8-32h30L160-5C157 61 82 97 21 62 9 55 4 45 1 30l28-7c7 42 83 31 92-3 4-16 9-38 13-55-13 20-29 36-62 36-40 0-60-25-60-64 0-71 23-131 91-131zm4 24c-53 0-58 54-61 104-2 27 10 44 36 44 49 0 65-50 67-102 1-29-15-46-42-46" id="bH"/><g id="f"><use transform="matrix(0.05,0,0,0.05,0,0)" xlink:href="#by"/><use transform="matrix(0.05,0,0,0.05,5.95,0)" xlink:href="#bw"/><use transform="matrix(0.05,0,0,0.05,15.949999999999998,0)" xlink:href="#bH"/><use transform="matrix(0.05,0,0,0.05,25.950000000000003,0)" xlink:href="#bE"/><use transform="matrix(0.05,0,0,0.05,29.899999999999995,0)" xlink:href="#bu"/><use transform="matrix(0.05,0,0,0.05,39.9,0)" xlink:href="#bx"/></g><path fill="#fff" d="M17-49c1-102 45-165 103-212h30C92-210 49-145 49-46 49 4 63 43 85 75H54C30 43 18 2 17-49" id="bI"/><g id="g"><use transform="matrix(0.05,0,0,0.05,0,0)" xlink:href="#bI"/><use transform="matrix(0.05,0,0,0.05,5.95,0)" xlink:href="#bD"/><use transform="matrix(0.05,0,0,0.05,15.949999999999998,0)" xlink:href="#bx"/><use transform="matrix(0.05,0,0,0.05,25.950000000000003,0)" xlink:href="#bz"/></g><g id="h"><use transform="matrix(0.05,0,0,0.05,0,0)" xlink:href="#bv"/><use transform="matrix(0.05,0,0,0.05,14.950000000000001,0)" xlink:href="#bE"/><use transform="matrix(0.05,0,0,0.05,18.900000000000002,0)" xlink:href="#bA"/><use transform="matrix(0.05,0,0,0.05,27.900000000000002,0)" xlink:href="#bA"/><use transform="matrix(0.05,0,0,0.05,36.900000000000006,0)" xlink:href="#bE"/><use transform="matrix(0.05,0,0,0.05,40.85000000000001,0)" xlink:href="#bu"/><use transform="matrix(0.05,0,0,0.05,50.85000000000001,0)" xlink:href="#bx"/></g><path fill="#fff" d="M198-190L69 30C53 58 25 83-20 72c4-11-1-27 19-22 33-1 43-29 59-52L20-190h32L79-34l84-156h35" id="bJ"/><path fill="#fff" d="M67-162c32-53 139-36 121 50C175-51 163 2 97 4 68 4 52-11 42-31 38 6 28 39 22 75H-9l50-265h29c-1 10 0 20-3 28zm89 36c0-26-10-43-35-43-54 0-67 50-69 103-1 29 14 45 42 46 53 0 62-58 62-106" id="bK"/><path fill="#fff" d="M28-184c13-41 42-62 95-67 81-7 97 95 38 128-25 14-56 24-63 57H67c6-67 99-52 99-119 0-27-20-37-46-38-33 0-55 19-63 46zM53 0l6-35h35L87 0H53" id="bL"/><path fill="#fff" d="M98-137C97-35 54 29-4 75h-31C23 23 67-41 67-140c0-50-15-89-37-121h31c24 32 36 73 37 124" id="bM"/><g id="i"><use transform="matrix(0.05,0,0,0.05,0,0)" xlink:href="#bG"/><use transform="matrix(0.05,0,0,0.05,5,0)" xlink:href="#bJ"/><use transform="matrix(0.05,0,0,0.05,14,0)" xlink:href="#bK"/><use transform="matrix(0.05,0,0,0.05,24,0)" xlink:href="#bw"/><use transform="matrix(0.05,0,0,0.05,34,0)" xlink:href="#bL"/><use transform="matrix(0.05,0,0,0.05,44,0)" xlink:href="#bM"/></g><path fill="#333" d="M177-190C167-65 218 103 67 71c-23-6-38-20-44-43l32-5c15 47 100 32 89-28v-30C133-14 115 1 83 1 29 1 15-40 15-95c0-56 16-97 71-98 29-1 48 16 59 35 1-10 0-23 2-32h30zM94-22c36 0 50-32 50-73 0-42-14-75-50-75-39 0-46 34-46 75s6 73 46 73" id="bN"/><path fill="#333" d="M114-163C36-179 61-72 57 0H25l-1-190h30c1 12-1 29 2 39 6-27 23-49 58-41v29" id="bO"/><path fill="#333" d="M100-194c62-1 85 37 85 99 1 63-27 99-86 99S16-35 15-95c0-66 28-99 85-99zM99-20c44 1 53-31 53-75 0-43-8-75-51-75s-53 32-53 75 10 74 51 75" id="bP"/><path fill="#333" d="M84 4C-5 8 30-112 23-190h32v120c0 31 7 50 39 49 72-2 45-101 50-169h31l1 190h-30c-1-10 1-25-2-33-11 22-28 36-60 37" id="bQ"/><path fill="#333" d="M117-194c89-4 53 116 60 194h-32v-121c0-31-8-49-39-48C34-167 62-67 57 0H25l-1-190h30c1 10-1 24 2 32 11-22 29-35 61-36" id="bR"/><path fill="#333" d="M85-194c31 0 48 13 60 33l-1-100h32l1 261h-30c-2-10 0-23-3-31C134-8 116 4 85 4 32 4 16-35 15-94c0-66 23-100 70-100zm9 24c-40 0-46 34-46 75 0 40 6 74 45 74 42 0 51-32 51-76 0-42-9-74-50-73" id="bS"/><g id="j"><use transform="matrix(0.05,0,0,0.05,0,0)" xlink:href="#bN"/><use transform="matrix(0.05,0,0,0.05,10,0)" xlink:href="#bO"/><use transform="matrix(0.05,0,0,0.05,15.949999999999998,0)" xlink:href="#bP"/><use transform="matrix(0.05,0,0,0.05,25.950000000000003,0)" xlink:href="#bQ"/><use transform="matrix(0.05,0,0,0.05,35.95,0)" xlink:href="#bR"/><use transform="matrix(0.05,0,0,0.05,45.95,0)" xlink:href="#bS"/></g><path fill="#333" d="M59-47c-2 24 18 29 38 22v24C64 9 27 4 27-40v-127H5v-23h24l9-43h21v43h35v23H59v120" id="bT"/><path fill="#333" d="M106-169C34-169 62-67 57 0H25v-261h32l-1 103c12-21 28-36 61-36 89 0 53 116 60 194h-32v-121c2-32-8-49-39-48" id="bU"/><path fill="#333" d="M24-231v-30h32v30H24zM24 0v-190h32V0H24" id="bV"/><g id="k"><use transform="matrix(0.05,0,0,0.05,0,0)" xlink:href="#bT"/><use transform="matrix(0.05,0,0,0.05,5,0)" xlink:href="#bO"/><use transform="matrix(0.05,0,0,0.05,10.95,0)" xlink:href="#bQ"/><use transform="matrix(0.05,0,0,0.05,20.95,0)" xlink:href="#bT"/><use transform="matrix(0.05,0,0,0.05,25.950000000000003,0)" xlink:href="#bU"/><use transform="matrix(0.05,0,0,0.05,35.95,0)" xlink:href="#bV"/><use transform="matrix(0.05,0,0,0.05,39.900000000000006,0)" xlink:href="#bR"/><use transform="matrix(0.05,0,0,0.05,49.900000000000006,0)" xlink:href="#bN"/></g><path fill="#333" d="M210-169c-67 3-38 105-44 169h-31v-121c0-29-5-50-35-48C34-165 62-65 56 0H25l-1-190h30c1 10-1 24 2 32 10-44 99-50 107 0 11-21 27-35 58-36 85-2 47 119 55 194h-31v-121c0-29-5-49-35-48" id="bW"/><path fill="#333" d="M135-143c-3-34-86-38-87 0 15 53 115 12 119 90S17 21 10-45l28-5c4 36 97 45 98 0-10-56-113-15-118-90-4-57 82-63 122-42 12 7 21 19 24 35" id="bX"/><path fill="#333" d="M103-251c84 0 111 97 45 133-19 10-37 24-39 52H78c0-63 77-55 77-114 0-30-21-42-52-43-32 0-53 17-56 46l-32-2c7-45 34-72 88-72zM77 0v-35h34V0H77" id="bY"/><g id="l"><use transform="matrix(0.05,0,0,0.05,0,0)" xlink:href="#bW"/><use transform="matrix(0.05,0,0,0.05,14.950000000000001,0)" xlink:href="#bV"/><use transform="matrix(0.05,0,0,0.05,18.900000000000002,0)" xlink:href="#bX"/><use transform="matrix(0.05,0,0,0.05,27.900000000000002,0)" xlink:href="#bX"/><use transform="matrix(0.05,0,0,0.05,36.900000000000006,0)" xlink:href="#bV"/><use transform="matrix(0.05,0,0,0.05,40.85000000000001,0)" xlink:href="#bP"/><use transform="matrix(0.05,0,0,0.05,50.85000000000001,0)" xlink:href="#bR"/><use transform="matrix(0.05,0,0,0.05,60.85,0)" xlink:href="#bY"/></g><path fill="#333" d="M146-102V0H94v-102L6-248h54l60 105 60-105h54" id="bZ"/><path fill="#333" d="M24 0v-248h195v40H76v63h132v40H76v65h150V0H24" id="ca"/><path fill="#333" d="M169-182c-1-43-94-46-97-3 18 66 151 10 154 114 3 95-165 93-204 36-6-8-10-19-12-30l50-8c3 46 112 56 116 5-17-69-150-10-154-114-4-87 153-88 188-35 5 8 8 18 10 28" id="cb"/><g id="m"><use transform="matrix(0.04320987654320988,0,0,0.04320987654320988,0,0)" xlink:href="#bZ"/><use transform="matrix(0.04320987654320988,0,0,0.04320987654320988,10.370370370370372,0)" xlink:href="#ca"/><use transform="matrix(0.04320987654320988,0,0,0.04320987654320988,20.740740740740744,0)" xlink:href="#cb"/></g><path fill="#a9afb8" d="M169-182c-1-43-94-46-97-3 18 66 151 10 154 114 3 95-165 93-204 36-6-8-10-19-12-30l50-8c3 46 112 56 116 5-17-69-150-10-154-114-4-87 153-88 188-35 5 8 8 18 10 28" id="cc"/><path fill="#a9afb8" d="M185-48c-13 30-37 53-82 52C43 2 14-33 14-96s30-98 90-98c62 0 83 45 84 108H66c0 31 8 55 39 56 18 0 30-7 34-22zm-45-69c5-46-57-63-70-21-2 6-4 13-4 21h74" id="cd"/><path fill="#a9afb8" d="M133-34C117-15 103 5 69 4 32 3 11-16 11-54c-1-60 55-63 116-61 1-26-3-47-28-47-18 1-26 9-28 27l-52-2c7-38 36-58 82-57s74 22 75 68l1 82c-1 14 12 18 25 15v27c-30 8-71 5-69-32zm-48 3c29 0 43-24 42-57-32 0-66-3-65 30 0 17 8 27 23 27" id="ce"/><path fill="#a9afb8" d="M182-130c37 4 62 22 62 59C244 23 116-4 24 0v-248c84 5 203-23 205 63 0 31-19 50-47 55zM76-148c40-3 101 13 101-30 0-44-60-28-101-31v61zm0 110c48-3 116 14 116-37 0-48-69-32-116-35v72" id="cf"/><g id="n"><use transform="matrix(0.0728395061728395,0,0,0.0728395061728395,0,0)" xlink:href="#cc"/><use transform="matrix(0.0728395061728395,0,0,0.0728395061728395,17.48148148148148,0)" xlink:href="#cd"/><use transform="matrix(0.0728395061728395,0,0,0.0728395061728395,32.04938271604938,0)" xlink:href="#ce"/><use transform="matrix(0.0728395061728395,0,0,0.0728395061728395,46.61728395061728,0)" xlink:href="#cf"/><use transform="matrix(0.0728395061728395,0,0,0.0728395061728395,65.4827160493827,0)" xlink:href="#cd"/><use transform="matrix(0.0728395061728395,0,0,0.0728395061728395,80.0506172839506,0)" xlink:href="#cd"/></g><path fill="#a9afb8" d="M88-194c31-1 46 15 58 34l-1-101h50l1 261h-48c-2-10 0-23-3-31C134-8 116 4 84 4 32 4 16-41 15-95c0-56 19-97 73-99zm17 164c33 0 40-30 41-66 1-37-9-64-41-64s-38 30-39 65c0 43 13 65 39 65" id="cg"/><path fill="#a9afb8" d="M115-3C79 11 28 4 28-45v-112H4v-33h27l15-45h31v45h36v33H77v99c-1 23 16 31 38 25v30" id="ch"/><g id="o"><use transform="matrix(0.0728395061728395,0,0,0.0728395061728395,0,0)" xlink:href="#cg"/><use transform="matrix(0.0728395061728395,0,0,0.0728395061728395,15.95185185185185,0)" xlink:href="#ce"/><use transform="matrix(0.0728395061728395,0,0,0.0728395061728395,30.51975308641975,0)" xlink:href="#ch"/><use transform="matrix(0.0728395061728395,0,0,0.0728395061728395,39.187654320987654,0)" xlink:href="#ce"/></g><path fill="#a9afb8" d="M121-226c-27-7-43 5-38 36h38v33H83V0H34v-157H6v-33h28c-9-59 32-81 87-68v32" id="ci"/><path fill="#a9afb8" d="M25 0v-261h50V0H25" id="cj"/><path fill="#a9afb8" d="M110-194c64 0 96 36 96 99 0 64-35 99-97 99-61 0-95-36-95-99 0-62 34-99 96-99zm-1 164c35 0 45-28 45-65 0-40-10-65-43-65-34 0-45 26-45 65 0 36 10 65 43 65" id="ck"/><path fill="#a9afb8" d="M231 0h-52l-39-155L100 0H48L-1-190h46L77-45c9-52 24-97 36-145h53l37 145 32-145h46" id="cl"/><g id="p"><use transform="matrix(0.0728395061728395,0,0,0.0728395061728395,0,0)" xlink:href="#ci"/><use transform="matrix(0.0728395061728395,0,0,0.0728395061728395,8.667901234567902,0)" xlink:href="#cj"/><use transform="matrix(0.0728395061728395,0,0,0.0728395061728395,15.951851851851854,0)" xlink:href="#ck"/><use transform="matrix(0.0728395061728395,0,0,0.0728395061728395,31.90370370370371,0)" xlink:href="#cl"/></g><path fill="#a9afb8" d="M233-177c-1 41-23 64-60 70L243 0h-38l-65-103H63V0H30v-248c88 3 205-21 203 71zM63-129c60-2 137 13 137-47 0-61-80-42-137-45v92" id="cm"/><path fill="#a9afb8" d="M100-194c62-1 85 37 85 99 1 63-27 99-86 99S16-35 15-95c0-66 28-99 85-99zM99-20c44 1 53-31 53-75 0-43-8-75-51-75s-53 32-53 75 10 74 51 75" id="cn"/><path fill="#a9afb8" d="M141-36C126-15 110 5 73 4 37 3 15-17 15-53c-1-64 63-63 125-63 3-35-9-54-41-54-24 1-41 7-42 31l-33-3c5-37 33-52 76-52 45 0 72 20 72 64v82c-1 20 7 32 28 27v20c-31 9-61-2-59-35zM48-53c0 20 12 33 32 33 41-3 63-29 60-74-43 2-92-5-92 41" id="co"/><path fill="#a9afb8" d="M24 0v-261h32V0H24" id="cp"/><path fill="#a9afb8" d="M85-194c31 0 48 13 60 33l-1-100h32l1 261h-30c-2-10 0-23-3-31C134-8 116 4 85 4 32 4 16-35 15-94c0-66 23-100 70-100zm9 24c-40 0-46 34-46 75 0 40 6 74 45 74 42 0 51-32 51-76 0-42-9-74-50-73" id="cq"/><g id="q"><use transform="matrix(0.04248971193415638,0,0,0.04248971193415638,0,0)" xlink:href="#cm"/><use transform="matrix(0.04248971193415638,0,0,0.04248971193415638,11.004835390946502,0)" xlink:href="#cn"/><use transform="matrix(0.04248971193415638,0,0,0.04248971193415638,19.502777777777776,0)" xlink:href="#co"/><use transform="matrix(0.04248971193415638,0,0,0.04248971193415638,28.000720164609046,0)" xlink:href="#cp"/><use transform="matrix(0.04248971193415638,0,0,0.04248971193415638,31.357407407407408,0)" xlink:href="#cq"/></g><path fill="#a9afb8" d="M185-189c-5-48-123-54-124 2 14 75 158 14 163 119 3 78-121 87-175 55-17-10-28-26-33-46l33-7c5 56 141 63 141-1 0-78-155-14-162-118-5-82 145-84 179-34 5 7 8 16 11 25" id="cr"/><path fill="#a9afb8" d="M59-47c-2 24 18 29 38 22v24C64 9 27 4 27-40v-127H5v-23h24l9-43h21v43h35v23H59v120" id="cs"/><path fill="#a9afb8" d="M114-163C36-179 61-72 57 0H25l-1-190h30c1 12-1 29 2 39 6-27 23-49 58-41v29" id="ct"/><path fill="#a9afb8" d="M210-169c-67 3-38 105-44 169h-31v-121c0-29-5-50-35-48C34-165 62-65 56 0H25l-1-190h30c1 10-1 24 2 32 10-44 99-50 107 0 11-21 27-35 58-36 85-2 47 119 55 194h-31v-121c0-29-5-49-35-48" id="cu"/><g id="r"><use transform="matrix(0.04248971193415638,0,0,0.04248971193415638,0,0)" xlink:href="#cr"/><use transform="matrix(0.04248971193415638,0,0,0.04248971193415638,10.19753086419753,0)" xlink:href="#cs"/><use transform="matrix(0.04248971193415638,0,0,0.04248971193415638,14.446502057613166,0)" xlink:href="#cn"/><use transform="matrix(0.04248971193415638,0,0,0.04248971193415638,22.944444444444443,0)" xlink:href="#ct"/><use transform="matrix(0.04248971193415638,0,0,0.04248971193415638,28.000720164609053,0)" xlink:href="#cu"/></g><path fill="#a9afb8" d="M32 76v-337h29V76H32" id="cv"/><use transform="matrix(0.04248971193415638,0,0,0.04248971193415638,0,0)" xlink:href="#cv" id="s"/><path fill="#a9afb8" d="M190 0L58-211 59 0H30v-248h39L202-35l-2-213h31V0h-41" id="cw"/><path fill="#a9afb8" d="M108 0H70L1-190h34L89-25l56-165h34" id="cx"/><path fill="#a9afb8" d="M100-194c63 0 86 42 84 106H49c0 40 14 67 53 68 26 1 43-12 49-29l28 8c-11 28-37 45-77 45C44 4 14-33 15-96c1-61 26-98 85-98zm52 81c6-60-76-77-97-28-3 7-6 17-6 28h103" id="cy"/><path fill="#a9afb8" d="M115-194c53 0 69 39 70 98 0 66-23 100-70 100C84 3 66-7 56-30L54 0H23l1-261h32v101c10-23 28-34 59-34zm-8 174c40 0 45-34 45-75 0-40-5-75-45-74-42 0-51 32-51 76 0 43 10 73 51 73" id="cz"/><g id="t"><use transform="matrix(0.04248971193415638,0,0,0.04248971193415638,0,0)" xlink:href="#cw"/><use transform="matrix(0.04248971193415638,0,0,0.04248971193415638,11.004835390946502,0)" xlink:href="#cn"/><use transform="matrix(0.04248971193415638,0,0,0.04248971193415638,19.502777777777776,0)" xlink:href="#cx"/><use transform="matrix(0.04248971193415638,0,0,0.04248971193415638,27.150925925925925,0)" xlink:href="#cy"/><use transform="matrix(0.04248971193415638,0,0,0.04248971193415638,35.6488683127572,0)" xlink:href="#cu"/><use transform="matrix(0.04248971193415638,0,0,0.04248971193415638,48.35329218106995,0)" xlink:href="#cz"/><use transform="matrix(0.04248971193415638,0,0,0.04248971193415638,56.851234567901244,0)" xlink:href="#cy"/><use transform="matrix(0.04248971193415638,0,0,0.04248971193415638,65.34917695473251,0)" xlink:href="#ct"/></g><path fill="#a9afb8" d="M101-251c82-7 93 87 43 132L82-64C71-53 59-42 53-27h129V0H18c2-99 128-94 128-182 0-28-16-43-45-43s-46 15-49 41l-32-3c6-41 34-60 81-64" id="cA"/><path fill="#a9afb8" d="M54-142c48-35 137-8 131 61C196 18 31 33 14-55l32-4c7 23 22 37 52 37 35-1 51-22 54-58 4-55-73-65-99-34H22l8-134h141v27H59" id="cB"/><path fill="#a9afb8" d="M68-38c1 34 0 65-14 84H32c9-13 17-26 17-46H33v-38h35" id="cC"/><g id="u"><use transform="matrix(0.04248971193415638,0,0,0.04248971193415638,0,0)" xlink:href="#cA"/><use transform="matrix(0.04248971193415638,0,0,0.04248971193415638,8.497942386831275,0)" xlink:href="#cB"/><use transform="matrix(0.04248971193415638,0,0,0.04248971193415638,16.99588477366255,0)" xlink:href="#cC"/></g><path fill="#a9afb8" d="M101-251c68 0 85 55 85 127S166 4 100 4C33 4 14-52 14-124c0-73 17-127 87-127zm-1 229c47 0 54-49 54-102s-4-102-53-102c-51 0-55 48-55 102 0 53 5 102 54 102" id="cD"/><g id="v"><use transform="matrix(0.04248971193415638,0,0,0.04248971193415638,0,0)" xlink:href="#cA"/><use transform="matrix(0.04248971193415638,0,0,0.04248971193415638,8.497942386831275,0)" xlink:href="#cD"/><use transform="matrix(0.04248971193415638,0,0,0.04248971193415638,16.99588477366255,0)" xlink:href="#cA"/><use transform="matrix(0.04248971193415638,0,0,0.04248971193415638,25.493827160493822,0)" xlink:href="#cD"/></g><g id="w"><use transform="matrix(0.05,0,0,0.05,0,0)" xlink:href="#bt"/><use transform="matrix(0.05,0,0,0.05,12,0)" xlink:href="#bG"/><use transform="matrix(0.05,0,0,0.05,17,0)" xlink:href="#bD"/><use transform="matrix(0.05,0,0,0.05,27,0)" xlink:href="#by"/><use transform="matrix(0.05,0,0,0.05,32.95,0)" xlink:href="#bG"/></g><path fill="#fff" d="M67 3c-93-2-31-127-26-193h32L48-50c-3 39 53 32 70 12 30-34 30-101 43-152h32L157 0h-30c1-10 6-24 4-33-14 20-29 37-64 36" id="cE"/><g id="x"><use transform="matrix(0.05,0,0,0.05,0,0)" xlink:href="#cE"/><use transform="matrix(0.05,0,0,0.05,10,0)" xlink:href="#bA"/><use transform="matrix(0.05,0,0,0.05,19,0)" xlink:href="#bE"/><use transform="matrix(0.05,0,0,0.05,22.95,0)" xlink:href="#bx"/><use transform="matrix(0.05,0,0,0.05,32.95,0)" xlink:href="#bH"/></g><path fill="#fff" d="M188 0h-37l-8-164L71 0H34L18-190h31l8 164 75-164h34l8 164 74-164h31" id="cF"/><g id="y"><use transform="matrix(0.05,0,0,0.05,0,0)" xlink:href="#bx"/><use transform="matrix(0.05,0,0,0.05,10,0)" xlink:href="#bw"/><use transform="matrix(0.05,0,0,0.05,20,0)" xlink:href="#cF"/></g><g id="z"><use transform="matrix(0.05,0,0,0.05,0,0)" xlink:href="#bB"/><use transform="matrix(0.05,0,0,0.05,9,0)" xlink:href="#bD"/><use transform="matrix(0.05,0,0,0.05,19,0)" xlink:href="#bv"/><use transform="matrix(0.05,0,0,0.05,33.95,0)" xlink:href="#bw"/><use transform="matrix(0.05,0,0,0.05,43.95,0)" xlink:href="#by"/><use transform="matrix(0.05,0,0,0.05,49.900000000000006,0)" xlink:href="#bD"/></g><path fill="#333" d="M212-179c-10-28-35-45-73-45-59 0-87 40-87 99 0 60 29 101 89 101 43 0 62-24 78-52l27 14C228-24 195 4 139 4 59 4 22-46 18-125c-6-104 99-153 187-111 19 9 31 26 39 46" id="cG"/><path fill="#333" d="M100-194c63 0 86 42 84 106H49c0 40 14 67 53 68 26 1 43-12 49-29l28 8c-11 28-37 45-77 45C44 4 14-33 15-96c1-61 26-98 85-98zm52 81c6-60-76-77-97-28-3 7-6 17-6 28h103" id="cH"/><path fill="#333" d="M141-36C126-15 110 5 73 4 37 3 15-17 15-53c-1-64 63-63 125-63 3-35-9-54-41-54-24 1-41 7-42 31l-33-3c5-37 33-52 76-52 45 0 72 20 72 64v82c-1 20 7 32 28 27v20c-31 9-61-2-59-35zM48-53c0 20 12 33 32 33 41-3 63-29 60-74-43 2-92-5-92 41" id="cI"/><path fill="#333" d="M24 0v-261h32V0H24" id="cJ"/><g id="A"><use transform="matrix(0.05,0,0,0.05,0,0)" xlink:href="#cG"/><use transform="matrix(0.05,0,0,0.05,12.950000000000001,0)" xlink:href="#cH"/><use transform="matrix(0.05,0,0,0.05,22.950000000000003,0)" xlink:href="#bR"/><use transform="matrix(0.05,0,0,0.05,32.95,0)" xlink:href="#bT"/><use transform="matrix(0.05,0,0,0.05,37.95,0)" xlink:href="#cI"/><use transform="matrix(0.05,0,0,0.05,47.95,0)" xlink:href="#cJ"/></g><path fill="#333" d="M115-194c53 0 69 39 70 98 0 66-23 100-70 100C84 3 66-7 56-30L54 0H23l1-261h32v101c10-23 28-34 59-34zm-8 174c40 0 45-34 45-75 0-40-5-75-45-74-42 0-51 32-51 76 0 43 10 73 51 73" id="cK"/><g id="B"><use transform="matrix(0.05,0,0,0.05,0,0)" xlink:href="#bS"/><use transform="matrix(0.05,0,0,0.05,10,0)" xlink:href="#cI"/><use transform="matrix(0.05,0,0,0.05,20,0)" xlink:href="#bT"/><use transform="matrix(0.05,0,0,0.05,25,0)" xlink:href="#cI"/><use transform="matrix(0.05,0,0,0.05,35,0)" xlink:href="#cK"/><use transform="matrix(0.05,0,0,0.05,45,0)" xlink:href="#cI"/><use transform="matrix(0.05,0,0,0.05,55,0)" xlink:href="#bX"/><use transform="matrix(0.05,0,0,0.05,64,0)" xlink:href="#cH"/></g><path fill="#333" d="M87 75C49 33 22-17 22-94c0-76 28-126 65-167h31c-38 41-64 92-64 168S80 34 118 75H87" id="cL"/><path fill="#333" d="M30-248c87 1 191-15 191 75 0 78-77 80-158 76V0H30v-248zm33 125c57 0 124 11 124-50 0-59-68-47-124-48v98" id="cM"/><path fill="#333" d="M33-261c38 41 65 92 65 168S71 34 33 75H2C39 34 66-17 66-93S39-220 2-261h31" id="cN"/><g id="C"><use transform="matrix(0.05,0,0,0.05,0,0)" xlink:href="#cL"/><use transform="matrix(0.05,0,0,0.05,5.95,0)" xlink:href="#cM"/><use transform="matrix(0.05,0,0,0.05,17.95,0)" xlink:href="#bP"/><use transform="matrix(0.05,0,0,0.05,27.950000000000003,0)" xlink:href="#bX"/><use transform="matrix(0.05,0,0,0.05,36.95,0)" xlink:href="#bT"/><use transform="matrix(0.05,0,0,0.05,41.95,0)" xlink:href="#bN"/><use transform="matrix(0.05,0,0,0.05,51.95,0)" xlink:href="#bO"/><use transform="matrix(0.05,0,0,0.05,57.900000000000006,0)" xlink:href="#cH"/><use transform="matrix(0.05,0,0,0.05,67.9,0)" xlink:href="#bX"/><use transform="matrix(0.05,0,0,0.05,76.9,0)" xlink:href="#cN"/></g><path fill="#333" d="M185-189c-5-48-123-54-124 2 14 75 158 14 163 119 3 78-121 87-175 55-17-10-28-26-33-46l33-7c5 56 141 63 141-1 0-78-155-14-162-118-5-82 145-84 179-34 5 7 8 16 11 25" id="cO"/><g id="D"><use transform="matrix(0.05,0,0,0.05,0,0)" xlink:href="#cO"/><use transform="matrix(0.05,0,0,0.05,12,0)" xlink:href="#bT"/><use transform="matrix(0.05,0,0,0.05,17,0)" xlink:href="#bP"/><use transform="matrix(0.05,0,0,0.05,27,0)" xlink:href="#bO"/><use transform="matrix(0.05,0,0,0.05,32.95,0)" xlink:href="#cH"/></g><path fill="#333" d="M206 0h-36l-40-164L89 0H53L-1-190h32L70-26l43-164h34l41 164 42-164h31" id="cP"/><g id="E"><use transform="matrix(0.05,0,0,0.05,0,0)" xlink:href="#bR"/><use transform="matrix(0.05,0,0,0.05,10,0)" xlink:href="#cH"/><use transform="matrix(0.05,0,0,0.05,20,0)" xlink:href="#cP"/></g><g id="F"><use transform="matrix(0.05,0,0,0.05,0,0)" xlink:href="#bW"/><use transform="matrix(0.05,0,0,0.05,14.950000000000001,0)" xlink:href="#bV"/><use transform="matrix(0.05,0,0,0.05,18.900000000000002,0)" xlink:href="#bX"/><use transform="matrix(0.05,0,0,0.05,27.900000000000002,0)" xlink:href="#bX"/><use transform="matrix(0.05,0,0,0.05,36.900000000000006,0)" xlink:href="#bV"/><use transform="matrix(0.05,0,0,0.05,40.85000000000001,0)" xlink:href="#bP"/><use transform="matrix(0.05,0,0,0.05,50.85000000000001,0)" xlink:href="#bR"/></g><path fill="#fff" d="M249-183c0 48-29 72-75 77L221 0h-36l-43-103H65L45 0H11l48-248c83 2 190-17 190 65zm-34 3c0-55-74-39-127-41l-18 92c63-1 145 13 145-51" id="cQ"/><g id="G"><use transform="matrix(0.05,0,0,0.05,0,0)" xlink:href="#cQ"/><use transform="matrix(0.05,0,0,0.05,12.950000000000001,0)" xlink:href="#bw"/><use transform="matrix(0.05,0,0,0.05,22.950000000000003,0)" xlink:href="#bH"/><use transform="matrix(0.05,0,0,0.05,32.95,0)" xlink:href="#bE"/><use transform="matrix(0.05,0,0,0.05,36.900000000000006,0)" xlink:href="#bA"/><use transform="matrix(0.05,0,0,0.05,45.900000000000006,0)" xlink:href="#bG"/><use transform="matrix(0.05,0,0,0.05,50.900000000000006,0)" xlink:href="#bw"/><use transform="matrix(0.05,0,0,0.05,60.900000000000006,0)" xlink:href="#by"/></g><g id="H"><use transform="matrix(0.05,0,0,0.05,0,0)" xlink:href="#bB"/><use transform="matrix(0.05,0,0,0.05,9,0)" xlink:href="#bD"/><use transform="matrix(0.05,0,0,0.05,19,0)" xlink:href="#bv"/><use transform="matrix(0.05,0,0,0.05,33.95,0)" xlink:href="#bw"/><use transform="matrix(0.05,0,0,0.05,43.95,0)" xlink:href="#by"/><use transform="matrix(0.05,0,0,0.05,49.900000000000006,0)" xlink:href="#bD"/></g><g id="I"><use transform="matrix(0.05,0,0,0.05,0,0)" xlink:href="#bD"/><use transform="matrix(0.05,0,0,0.05,10,0)" xlink:href="#bx"/><use transform="matrix(0.05,0,0,0.05,20,0)" xlink:href="#bz"/></g><path fill="#fff" d="M68-162c25-46 127-43 121 31C183-60 169 1 98 4 69 5 53-11 43-31L36 0H5l52-261h31zm88 36c2-27-9-43-34-43-55 0-70 51-70 103 0 29 15 45 43 46 52 0 58-58 61-106" id="cR"/><g id="J"><use transform="matrix(0.05,0,0,0.05,0,0)" xlink:href="#bD"/><use transform="matrix(0.05,0,0,0.05,10,0)" xlink:href="#bG"/><use transform="matrix(0.05,0,0,0.05,15,0)" xlink:href="#bG"/><use transform="matrix(0.05,0,0,0.05,20,0)" xlink:href="#by"/><use transform="matrix(0.05,0,0,0.05,25.950000000000003,0)" xlink:href="#bE"/><use transform="matrix(0.05,0,0,0.05,29.899999999999995,0)" xlink:href="#cR"/><use transform="matrix(0.05,0,0,0.05,39.9,0)" xlink:href="#cE"/><use transform="matrix(0.05,0,0,0.05,49.9,0)" xlink:href="#bG"/><use transform="matrix(0.05,0,0,0.05,54.900000000000006,0)" xlink:href="#bw"/><use transform="matrix(0.05,0,0,0.05,64.9,0)" xlink:href="#bA"/></g><path fill="#fff" d="M127 0L80-88 50-66 37 0H6l51-261h31L57-100l99-90h39l-93 82L161 0h-34" id="cS"/><g id="K"><use transform="matrix(0.05,0,0,0.05,0,0)" xlink:href="#bC"/><use transform="matrix(0.05,0,0,0.05,3.95,0)" xlink:href="#bE"/><use transform="matrix(0.05,0,0,0.05,7.9,0)" xlink:href="#cS"/><use transform="matrix(0.05,0,0,0.05,16.9,0)" xlink:href="#bw"/></g><g id="L"><use transform="matrix(0.05,0,0,0.05,0,0)" xlink:href="#by"/><use transform="matrix(0.05,0,0,0.05,5.95,0)" xlink:href="#bw"/><use transform="matrix(0.05,0,0,0.05,15.949999999999998,0)" xlink:href="#bA"/><use transform="matrix(0.05,0,0,0.05,24.95,0)" xlink:href="#bu"/><use transform="matrix(0.05,0,0,0.05,34.95,0)" xlink:href="#bC"/><use transform="matrix(0.05,0,0,0.05,38.900000000000006,0)" xlink:href="#cE"/><use transform="matrix(0.05,0,0,0.05,48.900000000000006,0)" xlink:href="#bG"/><use transform="matrix(0.05,0,0,0.05,53.900000000000006,0)" xlink:href="#bE"/><use transform="matrix(0.05,0,0,0.05,57.85,0)" xlink:href="#bu"/><use transform="matrix(0.05,0,0,0.05,67.85000000000001,0)" xlink:href="#bx"/></g><g id="M"><use transform="matrix(0.05,0,0,0.05,0,0)" xlink:href="#bD"/><use transform="matrix(0.05,0,0,0.05,10,0)" xlink:href="#bx"/><use transform="matrix(0.05,0,0,0.05,20,0)" xlink:href="#bz"/></g><path fill="#fff" d="M67-158c15-20 31-36 64-36 94 0 33 127 27 194h-32l25-140c3-38-53-32-70-12C52-117 51-51 37 0H6l51-261h31" id="cT"/><g id="N"><use transform="matrix(0.05,0,0,0.05,0,0)" xlink:href="#cF"/><use transform="matrix(0.05,0,0,0.05,12.950000000000001,0)" xlink:href="#bw"/><use transform="matrix(0.05,0,0,0.05,22.950000000000003,0)" xlink:href="#bE"/><use transform="matrix(0.05,0,0,0.05,26.900000000000002,0)" xlink:href="#bH"/><use transform="matrix(0.05,0,0,0.05,36.900000000000006,0)" xlink:href="#bG"/><use transform="matrix(0.05,0,0,0.05,41.900000000000006,0)" xlink:href="#cT"/></g><g id="O"><use transform="matrix(0.05,0,0,0.05,0,0)" xlink:href="#cG"/><use transform="matrix(0.05,0,0,0.05,12.950000000000001,0)" xlink:href="#cI"/><use transform="matrix(0.05,0,0,0.05,22.950000000000003,0)" xlink:href="#cJ"/><use transform="matrix(0.05,0,0,0.05,26.900000000000002,0)" xlink:href="#bV"/><use transform="matrix(0.05,0,0,0.05,30.85,0)" xlink:href="#cK"/><use transform="matrix(0.05,0,0,0.05,40.85,0)" xlink:href="#bO"/><use transform="matrix(0.05,0,0,0.05,46.800000000000004,0)" xlink:href="#cI"/><use transform="matrix(0.05,0,0,0.05,56.800000000000004,0)" xlink:href="#bT"/><use transform="matrix(0.05,0,0,0.05,61.800000000000004,0)" xlink:href="#cH"/></g><g id="P"><use transform="matrix(0.05,0,0,0.05,0,0)" xlink:href="#cG"/><use transform="matrix(0.05,0,0,0.05,12.950000000000001,0)" xlink:href="#cI"/><use transform="matrix(0.05,0,0,0.05,22.950000000000003,0)" xlink:href="#bW"/><use transform="matrix(0.05,0,0,0.05,37.900000000000006,0)" xlink:href="#cH"/><use transform="matrix(0.05,0,0,0.05,47.900000000000006,0)" xlink:href="#bO"/><use transform="matrix(0.05,0,0,0.05,53.85,0)" xlink:href="#cI"/></g><g id="Q"><use transform="matrix(0.05,0,0,0.05,0,0)" xlink:href="#cO"/><use transform="matrix(0.05,0,0,0.05,12,0)" xlink:href="#bT"/><use transform="matrix(0.05,0,0,0.05,17,0)" xlink:href="#bP"/><use transform="matrix(0.05,0,0,0.05,27,0)" xlink:href="#bO"/><use transform="matrix(0.05,0,0,0.05,32.95,0)" xlink:href="#cH"/></g><path fill="#333" d="M96-169c-40 0-48 33-48 73s9 75 48 75c24 0 41-14 43-38l32 2c-6 37-31 61-74 61-59 0-76-41-82-99-10-93 101-131 147-64 4 7 5 14 7 22l-32 3c-4-21-16-35-41-35" id="cU"/><g id="R"><use transform="matrix(0.05,0,0,0.05,0,0)" xlink:href="#cU"/><use transform="matrix(0.05,0,0,0.05,9,0)" xlink:href="#cI"/><use transform="matrix(0.05,0,0,0.05,19,0)" xlink:href="#bW"/><use transform="matrix(0.05,0,0,0.05,33.95,0)" xlink:href="#cH"/><use transform="matrix(0.05,0,0,0.05,43.95,0)" xlink:href="#bO"/><use transform="matrix(0.05,0,0,0.05,49.900000000000006,0)" xlink:href="#cI"/></g><g id="S"><use transform="matrix(0.05,0,0,0.05,0,0)" xlink:href="#cU"/><use transform="matrix(0.05,0,0,0.05,9,0)" xlink:href="#cI"/><use transform="matrix(0.05,0,0,0.05,19,0)" xlink:href="#cJ"/><use transform="matrix(0.05,0,0,0.05,22.95,0)" xlink:href="#bV"/><use transform="matrix(0.05,0,0,0.05,26.899999999999995,0)" xlink:href="#cK"/><use transform="matrix(0.05,0,0,0.05,36.9,0)" xlink:href="#bO"/><use transform="matrix(0.05,0,0,0.05,42.85,0)" xlink:href="#cI"/><use transform="matrix(0.05,0,0,0.05,52.85,0)" xlink:href="#bT"/><use transform="matrix(0.05,0,0,0.05,57.85,0)" xlink:href="#bV"/><use transform="matrix(0.05,0,0,0.05,61.800000000000004,0)" xlink:href="#bP"/><use transform="matrix(0.05,0,0,0.05,71.80000000000001,0)" xlink:href="#bR"/></g><g id="T"><use transform="matrix(0.05,0,0,0.05,0,0)" xlink:href="#bS"/><use transform="matrix(0.05,0,0,0.05,10,0)" xlink:href="#cI"/><use transform="matrix(0.05,0,0,0.05,20,0)" xlink:href="#bT"/><use transform="matrix(0.05,0,0,0.05,25,0)" xlink:href="#cI"/></g><g id="U"><use transform="matrix(0.05,0,0,0.05,0,0)" xlink:href="#cP"/><use transform="matrix(0.05,0,0,0.05,12.950000000000001,0)" xlink:href="#cI"/><use transform="matrix(0.05,0,0,0.05,22.950000000000003,0)" xlink:href="#bV"/><use transform="matrix(0.05,0,0,0.05,26.900000000000002,0)" xlink:href="#bT"/></g><path fill="#333" d="M195 0l-74-108L45 0H8l94-129-87-119h37l69 98 67-98h37l-84 118L233 0h-38" id="cV"/><use transform="matrix(0.05,0,0,0.05,0,0)" xlink:href="#cV" id="V"/><g id="W"><use transform="matrix(0.05,0,0,0.05,0,0)" xlink:href="#bW"/><use transform="matrix(0.05,0,0,0.05,14.950000000000001,0)" xlink:href="#bP"/><use transform="matrix(0.05,0,0,0.05,24.950000000000003,0)" xlink:href="#bR"/><use transform="matrix(0.05,0,0,0.05,34.95,0)" xlink:href="#bT"/><use transform="matrix(0.05,0,0,0.05,39.95,0)" xlink:href="#bU"/><use transform="matrix(0.05,0,0,0.05,49.95,0)" xlink:href="#bX"/></g><path fill="#333" d="M143 0L79-87 56-68V0H24v-261h32v163l83-92h37l-77 82L181 0h-38" id="cW"/><g id="X"><use transform="matrix(0.05,0,0,0.05,0,0)" xlink:href="#cJ"/><use transform="matrix(0.05,0,0,0.05,3.95,0)" xlink:href="#bV"/><use transform="matrix(0.05,0,0,0.05,7.9,0)" xlink:href="#bR"/><use transform="matrix(0.05,0,0,0.05,17.9,0)" xlink:href="#cW"/></g><g id="Y"><use transform="matrix(0.05,0,0,0.05,0,0)" xlink:href="#bX"/><use transform="matrix(0.05,0,0,0.05,9,0)" xlink:href="#cH"/><use transform="matrix(0.05,0,0,0.05,19,0)" xlink:href="#cJ"/><use transform="matrix(0.05,0,0,0.05,22.95,0)" xlink:href="#cH"/><use transform="matrix(0.05,0,0,0.05,32.95,0)" xlink:href="#cU"/><use transform="matrix(0.05,0,0,0.05,41.95,0)" xlink:href="#bT"/><use transform="matrix(0.05,0,0,0.05,46.95,0)" xlink:href="#cH"/><use transform="matrix(0.05,0,0,0.05,56.95,0)" xlink:href="#bS"/></g><g id="Z"><use transform="matrix(0.05,0,0,0.05,0,0)" xlink:href="#bS"/><use transform="matrix(0.05,0,0,0.05,10,0)" xlink:href="#bO"/><use transform="matrix(0.05,0,0,0.05,15.949999999999998,0)" xlink:href="#bP"/><use transform="matrix(0.05,0,0,0.05,25.950000000000003,0)" xlink:href="#bR"/><use transform="matrix(0.05,0,0,0.05,35.95,0)" xlink:href="#cH"/></g><g id="aa"><use transform="matrix(0.05,0,0,0.05,0,0)" xlink:href="#cI"/><use transform="matrix(0.05,0,0,0.05,10,0)" xlink:href="#bR"/><use transform="matrix(0.05,0,0,0.05,20,0)" xlink:href="#bS"/></g><g id="ab"><use transform="matrix(0.05,0,0,0.05,0,0)" xlink:href="#cU"/><use transform="matrix(0.05,0,0,0.05,9,0)" xlink:href="#cI"/><use transform="matrix(0.05,0,0,0.05,19,0)" xlink:href="#bW"/><use transform="matrix(0.05,0,0,0.05,33.95,0)" xlink:href="#cH"/><use transform="matrix(0.05,0,0,0.05,43.95,0)" xlink:href="#bO"/><use transform="matrix(0.05,0,0,0.05,49.900000000000006,0)" xlink:href="#cI"/></g><g id="ac"><use transform="matrix(0.05,0,0,0.05,0,0)" xlink:href="#bT"/><use transform="matrix(0.05,0,0,0.05,5,0)" xlink:href="#bP"/></g><path fill="#333" d="M33 0v-248h34V0H33" id="cX"/><path fill="#333" d="M179-190L93 31C79 59 56 82 12 73V49c39 6 53-20 64-50L1-190h34L92-34l54-156h33" id="cY"/><g id="ae"><use transform="matrix(0.05,0,0,0.05,0,0)" xlink:href="#cX"/><use transform="matrix(0.05,0,0,0.05,5,0)" xlink:href="#bW"/><use transform="matrix(0.05,0,0,0.05,19.950000000000003,0)" xlink:href="#cI"/><use transform="matrix(0.05,0,0,0.05,29.950000000000003,0)" xlink:href="#bN"/><use transform="matrix(0.05,0,0,0.05,39.95,0)" xlink:href="#cH"/><use transform="matrix(0.05,0,0,0.05,49.95,0)" xlink:href="#bO"/><use transform="matrix(0.05,0,0,0.05,55.900000000000006,0)" xlink:href="#cY"/></g><g id="af"><use transform="matrix(0.05,0,0,0.05,0,0)" xlink:href="#cL"/><use transform="matrix(0.05,0,0,0.05,5.95,0)" xlink:href="#cK"/><use transform="matrix(0.05,0,0,0.05,15.949999999999998,0)" xlink:href="#bQ"/><use transform="matrix(0.05,0,0,0.05,25.950000000000003,0)" xlink:href="#cU"/><use transform="matrix(0.05,0,0,0.05,34.95,0)" xlink:href="#cW"/><use transform="matrix(0.05,0,0,0.05,43.95,0)" xlink:href="#cH"/><use transform="matrix(0.05,0,0,0.05,53.95,0)" xlink:href="#bT"/><use transform="matrix(0.05,0,0,0.05,58.95,0)" xlink:href="#bX"/><use transform="matrix(0.05,0,0,0.05,67.95,0)" xlink:href="#bY"/><use transform="matrix(0.05,0,0,0.05,77.95,0)" xlink:href="#cN"/></g><path fill="#333" d="M232-93c-1 65-40 97-104 97C67 4 28-28 28-90v-158h33c8 89-33 224 67 224 102 0 64-133 71-224h33v155" id="cZ"/><path fill="#333" d="M115-194c55 1 70 41 70 98S169 2 115 4C84 4 66-9 55-30l1 105H24l-1-265h31l2 30c10-21 28-34 59-34zm-8 174c40 0 45-34 45-75s-6-73-45-74c-42 0-51 32-51 76 0 43 10 73 51 73" id="da"/><g id="ag"><use transform="matrix(0.05,0,0,0.05,0,0)" xlink:href="#cZ"/><use transform="matrix(0.05,0,0,0.05,12.950000000000001,0)" xlink:href="#da"/><use transform="matrix(0.05,0,0,0.05,22.950000000000003,0)" xlink:href="#cJ"/><use transform="matrix(0.05,0,0,0.05,26.900000000000002,0)" xlink:href="#bP"/><use transform="matrix(0.05,0,0,0.05,36.900000000000006,0)" xlink:href="#cI"/><use transform="matrix(0.05,0,0,0.05,46.900000000000006,0)" xlink:href="#bS"/></g><g id="ah"><use transform="matrix(0.05,0,0,0.05,0,0)" xlink:href="#bS"/><use transform="matrix(0.05,0,0,0.05,10,0)" xlink:href="#cI"/><use transform="matrix(0.05,0,0,0.05,20,0)" xlink:href="#bT"/><use transform="matrix(0.05,0,0,0.05,25,0)" xlink:href="#cI"/></g><g id="ai"><use transform="matrix(0.05,0,0,0.05,0,0)" xlink:href="#bQ"/><use transform="matrix(0.05,0,0,0.05,10,0)" xlink:href="#da"/><use transform="matrix(0.05,0,0,0.05,20,0)" xlink:href="#bS"/><use transform="matrix(0.05,0,0,0.05,30,0)" xlink:href="#cI"/><use transform="matrix(0.05,0,0,0.05,40,0)" xlink:href="#bT"/><use transform="matrix(0.05,0,0,0.05,45,0)" xlink:href="#cH"/></g><g id="aj"><use transform="matrix(0.05,0,0,0.05,0,0)" xlink:href="#bW"/><use transform="matrix(0.05,0,0,0.05,14.950000000000001,0)" xlink:href="#bV"/><use transform="matrix(0.05,0,0,0.05,18.900000000000002,0)" xlink:href="#bX"/><use transform="matrix(0.05,0,0,0.05,27.900000000000002,0)" xlink:href="#bX"/><use transform="matrix(0.05,0,0,0.05,36.900000000000006,0)" xlink:href="#bV"/><use transform="matrix(0.05,0,0,0.05,40.85000000000001,0)" xlink:href="#bP"/><use transform="matrix(0.05,0,0,0.05,50.85000000000001,0)" xlink:href="#bR"/></g><g id="ak"><use transform="matrix(0.05,0,0,0.05,0,0)" xlink:href="#bW"/><use transform="matrix(0.05,0,0,0.05,14.950000000000001,0)" xlink:href="#cH"/><use transform="matrix(0.05,0,0,0.05,24.950000000000003,0)" xlink:href="#bT"/><use transform="matrix(0.05,0,0,0.05,29.950000000000003,0)" xlink:href="#cI"/><use transform="matrix(0.05,0,0,0.05,39.95,0)" xlink:href="#bS"/><use transform="matrix(0.05,0,0,0.05,49.95,0)" xlink:href="#cI"/><use transform="matrix(0.05,0,0,0.05,59.95,0)" xlink:href="#bT"/><use transform="matrix(0.05,0,0,0.05,64.95,0)" xlink:href="#cI"/></g><g id="al"><use transform="matrix(0.05,0,0,0.05,0,0)" xlink:href="#bX"/><use transform="matrix(0.05,0,0,0.05,9,0)" xlink:href="#bT"/><use transform="matrix(0.05,0,0,0.05,14,0)" xlink:href="#bP"/><use transform="matrix(0.05,0,0,0.05,24,0)" xlink:href="#bO"/><use transform="matrix(0.05,0,0,0.05,29.950000000000003,0)" xlink:href="#cH"/></g><g id="am"><use transform="matrix(0.05,0,0,0.05,0,0)" xlink:href="#bO"/><use transform="matrix(0.05,0,0,0.05,5.95,0)" xlink:href="#cI"/><use transform="matrix(0.05,0,0,0.05,15.949999999999998,0)" xlink:href="#cP"/></g><g id="an"><use transform="matrix(0.05,0,0,0.05,0,0)" xlink:href="#bV"/><use transform="matrix(0.05,0,0,0.05,3.95,0)" xlink:href="#bW"/><use transform="matrix(0.05,0,0,0.05,18.900000000000002,0)" xlink:href="#cI"/><use transform="matrix(0.05,0,0,0.05,28.900000000000002,0)" xlink:href="#bN"/><use transform="matrix(0.05,0,0,0.05,38.900000000000006,0)" xlink:href="#cH"/><use transform="matrix(0.05,0,0,0.05,48.900000000000006,0)" xlink:href="#bX"/></g><g id="ao"><use transform="matrix(0.05,0,0,0.05,0,0)" xlink:href="#cG"/><use transform="matrix(0.05,0,0,0.05,12.950000000000001,0)" xlink:href="#bO"/><use transform="matrix(0.05,0,0,0.05,18.900000000000002,0)" xlink:href="#cH"/><use transform="matrix(0.05,0,0,0.05,28.900000000000002,0)" xlink:href="#cI"/><use transform="matrix(0.05,0,0,0.05,38.900000000000006,0)" xlink:href="#bT"/><use transform="matrix(0.05,0,0,0.05,43.900000000000006,0)" xlink:href="#cH"/></g><path fill="#333" d="M240 0l2-218c-23 76-54 145-80 218h-23L58-218 59 0H30v-248h44l77 211c21-75 51-140 76-211h43V0h-30" id="db"/><g id="ap"><use transform="matrix(0.05,0,0,0.05,0,0)" xlink:href="#db"/><use transform="matrix(0.05,0,0,0.05,14.950000000000001,0)" xlink:href="#bP"/><use transform="matrix(0.05,0,0,0.05,24.950000000000003,0)" xlink:href="#bX"/><use transform="matrix(0.05,0,0,0.05,33.95,0)" xlink:href="#cI"/><use transform="matrix(0.05,0,0,0.05,43.95,0)" xlink:href="#bV"/><use transform="matrix(0.05,0,0,0.05,47.900000000000006,0)" xlink:href="#cU"/></g><g id="aq"><use transform="matrix(0.05,0,0,0.05,0,0)" xlink:href="#bX"/><use transform="matrix(0.05,0,0,0.05,9,0)" xlink:href="#bT"/><use transform="matrix(0.05,0,0,0.05,14,0)" xlink:href="#cI"/><use transform="matrix(0.05,0,0,0.05,24,0)" xlink:href="#bO"/><use transform="matrix(0.05,0,0,0.05,29.950000000000003,0)" xlink:href="#bT"/></g><g id="ar"><use transform="matrix(0.05,0,0,0.05,0,0)" xlink:href="#bW"/><use transform="matrix(0.05,0,0,0.05,14.950000000000001,0)" xlink:href="#bP"/><use transform="matrix(0.05,0,0,0.05,24.950000000000003,0)" xlink:href="#bX"/><use transform="matrix(0.05,0,0,0.05,33.95,0)" xlink:href="#cI"/><use transform="matrix(0.05,0,0,0.05,43.95,0)" xlink:href="#bV"/><use transform="matrix(0.05,0,0,0.05,47.900000000000006,0)" xlink:href="#cU"/><use transform="matrix(0.05,0,0,0.05,56.900000000000006,0)" xlink:href="#bV"/><use transform="matrix(0.05,0,0,0.05,60.85,0)" xlink:href="#bR"/><use transform="matrix(0.05,0,0,0.05,70.85000000000001,0)" xlink:href="#bN"/></g><g id="as"><use transform="matrix(0.05,0,0,0.05,0,0)" xlink:href="#bT"/><use transform="matrix(0.05,0,0,0.05,5,0)" xlink:href="#cI"/><use transform="matrix(0.05,0,0,0.05,15,0)" xlink:href="#bX"/><use transform="matrix(0.05,0,0,0.05,24,0)" xlink:href="#cW"/></g><g id="at"><use transform="matrix(0.05,0,0,0.05,0,0)" xlink:href="#bX"/><use transform="matrix(0.05,0,0,0.05,9,0)" xlink:href="#bT"/><use transform="matrix(0.05,0,0,0.05,14,0)" xlink:href="#bP"/><use transform="matrix(0.05,0,0,0.05,24,0)" xlink:href="#bO"/><use transform="matrix(0.05,0,0,0.05,29.950000000000003,0)" xlink:href="#cH"/></g><g id="au"><use transform="matrix(0.05,0,0,0.05,0,0)" xlink:href="#bW"/><use transform="matrix(0.05,0,0,0.05,14.950000000000001,0)" xlink:href="#bP"/><use transform="matrix(0.05,0,0,0.05,24.950000000000003,0)" xlink:href="#bX"/><use transform="matrix(0.05,0,0,0.05,33.95,0)" xlink:href="#cI"/><use transform="matrix(0.05,0,0,0.05,43.95,0)" xlink:href="#bV"/><use transform="matrix(0.05,0,0,0.05,47.900000000000006,0)" xlink:href="#cU"/></g><path fill="#333" d="M205 0l-28-72H64L36 0H1l101-248h38L239 0h-34zm-38-99l-47-123c-12 45-31 82-46 123h93" id="dc"/><g id="av"><use transform="matrix(0.05,0,0,0.05,0,0)" xlink:href="#dc"/><use transform="matrix(0.05,0,0,0.05,12,0)" xlink:href="#bR"/><use transform="matrix(0.05,0,0,0.05,22,0)" xlink:href="#bR"/><use transform="matrix(0.05,0,0,0.05,32,0)" xlink:href="#bP"/><use transform="matrix(0.05,0,0,0.05,42,0)" xlink:href="#bT"/><use transform="matrix(0.05,0,0,0.05,47,0)" xlink:href="#cI"/><use transform="matrix(0.05,0,0,0.05,57,0)" xlink:href="#bT"/><use transform="matrix(0.05,0,0,0.05,62,0)" xlink:href="#cH"/></g><g id="aw"><use transform="matrix(0.05,0,0,0.05,0,0)" xlink:href="#bW"/><use transform="matrix(0.05,0,0,0.05,14.950000000000001,0)" xlink:href="#bP"/><use transform="matrix(0.05,0,0,0.05,24.950000000000003,0)" xlink:href="#bX"/><use transform="matrix(0.05,0,0,0.05,33.95,0)" xlink:href="#cI"/><use transform="matrix(0.05,0,0,0.05,43.95,0)" xlink:href="#bV"/><use transform="matrix(0.05,0,0,0.05,47.900000000000006,0)" xlink:href="#cU"/></g><g id="ax"><use transform="matrix(0.05,0,0,0.05,0,0)" xlink:href="#cP"/><use transform="matrix(0.05,0,0,0.05,12.950000000000001,0)" xlink:href="#bV"/><use transform="matrix(0.05,0,0,0.05,16.900000000000002,0)" xlink:href="#bT"/><use transform="matrix(0.05,0,0,0.05,21.900000000000002,0)" xlink:href="#bU"/></g><g id="ay"><use transform="matrix(0.05,0,0,0.05,0,0)" xlink:href="#bN"/><use transform="matrix(0.05,0,0,0.05,10,0)" xlink:href="#bO"/><use transform="matrix(0.05,0,0,0.05,15.949999999999998,0)" xlink:href="#bP"/><use transform="matrix(0.05,0,0,0.05,25.950000000000003,0)" xlink:href="#bQ"/><use transform="matrix(0.05,0,0,0.05,35.95,0)" xlink:href="#bR"/><use transform="matrix(0.05,0,0,0.05,45.95,0)" xlink:href="#bS"/></g><g id="az"><use transform="matrix(0.05,0,0,0.05,0,0)" xlink:href="#bT"/><use transform="matrix(0.05,0,0,0.05,5,0)" xlink:href="#bO"/><use transform="matrix(0.05,0,0,0.05,10.95,0)" xlink:href="#bQ"/><use transform="matrix(0.05,0,0,0.05,20.95,0)" xlink:href="#bT"/><use transform="matrix(0.05,0,0,0.05,25.950000000000003,0)" xlink:href="#bU"/></g><g id="aA"><use transform="matrix(0.05,0,0,0.05,0,0)" xlink:href="#cI"/><use transform="matrix(0.05,0,0,0.05,10,0)" xlink:href="#bR"/><use transform="matrix(0.05,0,0,0.05,20,0)" xlink:href="#bR"/><use transform="matrix(0.05,0,0,0.05,30,0)" xlink:href="#bP"/><use transform="matrix(0.05,0,0,0.05,40,0)" xlink:href="#bT"/><use transform="matrix(0.05,0,0,0.05,45,0)" xlink:href="#cI"/><use transform="matrix(0.05,0,0,0.05,55,0)" xlink:href="#bT"/><use transform="matrix(0.05,0,0,0.05,60,0)" xlink:href="#bV"/><use transform="matrix(0.05,0,0,0.05,63.95,0)" xlink:href="#bP"/><use transform="matrix(0.05,0,0,0.05,73.95,0)" xlink:href="#bR"/></g><g id="aB"><use transform="matrix(0.05,0,0,0.05,0,0)" xlink:href="#da"/><use transform="matrix(0.05,0,0,0.05,10,0)" xlink:href="#bP"/><use transform="matrix(0.05,0,0,0.05,20,0)" xlink:href="#cJ"/><use transform="matrix(0.05,0,0,0.05,23.95,0)" xlink:href="#cY"/><use transform="matrix(0.05,0,0,0.05,32.95,0)" xlink:href="#bN"/><use transform="matrix(0.05,0,0,0.05,42.95,0)" xlink:href="#bP"/><use transform="matrix(0.05,0,0,0.05,52.95,0)" xlink:href="#bR"/><use transform="matrix(0.05,0,0,0.05,62.95,0)" xlink:href="#bX"/></g><path fill="#333" d="M30 0v-248h187v28H63v79h144v27H63v87h162V0H30" id="dd"/><path fill="#333" d="M141 0L90-78 38 0H4l68-98-65-92h35l48 74 47-74h35l-64 92 68 98h-35" id="de"/><g id="aC"><use transform="matrix(0.05,0,0,0.05,0,0)" xlink:href="#dd"/><use transform="matrix(0.05,0,0,0.05,12,0)" xlink:href="#de"/><use transform="matrix(0.05,0,0,0.05,21,0)" xlink:href="#cH"/><use transform="matrix(0.05,0,0,0.05,31,0)" xlink:href="#cU"/><use transform="matrix(0.05,0,0,0.05,40,0)" xlink:href="#bQ"/><use transform="matrix(0.05,0,0,0.05,50,0)" xlink:href="#bT"/><use transform="matrix(0.05,0,0,0.05,55,0)" xlink:href="#cH"/></g><g id="aD"><use transform="matrix(0.05,0,0,0.05,0,0)" xlink:href="#bW"/><use transform="matrix(0.05,0,0,0.05,14.950000000000001,0)" xlink:href="#bV"/><use transform="matrix(0.05,0,0,0.05,18.900000000000002,0)" xlink:href="#bX"/><use transform="matrix(0.05,0,0,0.05,27.900000000000002,0)" xlink:href="#bX"/><use transform="matrix(0.05,0,0,0.05,36.900000000000006,0)" xlink:href="#bV"/><use transform="matrix(0.05,0,0,0.05,40.85000000000001,0)" xlink:href="#bP"/><use transform="matrix(0.05,0,0,0.05,50.85000000000001,0)" xlink:href="#bR"/></g><path fill="#333" d="M30-248c118-7 216 8 213 122C240-48 200 0 122 0H30v-248zM63-27c89 8 146-16 146-99s-60-101-146-95v194" id="df"/><g id="aE"><use transform="matrix(0.05,0,0,0.05,0,0)" xlink:href="#df"/><use transform="matrix(0.05,0,0,0.05,12.950000000000001,0)" xlink:href="#bO"/><use transform="matrix(0.05,0,0,0.05,18.900000000000002,0)" xlink:href="#bP"/><use transform="matrix(0.05,0,0,0.05,28.900000000000002,0)" xlink:href="#bR"/><use transform="matrix(0.05,0,0,0.05,38.900000000000006,0)" xlink:href="#cH"/></g><path fill="#333" d="M140-251c81 0 123 46 123 126C263-46 219 4 140 4 59 4 17-45 17-125s42-126 123-126zm0 227c63 0 89-41 89-101s-29-99-89-99c-61 0-89 39-89 99S79-25 140-24" id="dg"/><g id="aF"><use transform="matrix(0.05,0,0,0.05,0,0)" xlink:href="#dg"/><use transform="matrix(0.05,0,0,0.05,14,0)" xlink:href="#da"/><use transform="matrix(0.05,0,0,0.05,24,0)" xlink:href="#cH"/><use transform="matrix(0.05,0,0,0.05,34,0)" xlink:href="#bO"/><use transform="matrix(0.05,0,0,0.05,39.95,0)" xlink:href="#cI"/><use transform="matrix(0.05,0,0,0.05,49.95,0)" xlink:href="#bT"/><use transform="matrix(0.05,0,0,0.05,54.95,0)" xlink:href="#bP"/><use transform="matrix(0.05,0,0,0.05,64.95,0)" xlink:href="#bO"/><use transform="matrix(0.05,0,0,0.05,70.9,0)" xlink:href="#bX"/></g><path fill="#333" d="M190 0L58-211 59 0H30v-248h39L202-35l-2-213h31V0h-41" id="dh"/><path fill="#333" d="M127-220V0H93v-220H8v-28h204v28h-85" id="di"/><g id="aG"><use transform="matrix(0.05,0,0,0.05,0,0)" xlink:href="#dh"/><use transform="matrix(0.05,0,0,0.05,12.950000000000001,0)" xlink:href="#di"/><use transform="matrix(0.05,0,0,0.05,23.900000000000002,0)" xlink:href="#dh"/><use transform="matrix(0.05,0,0,0.05,36.85,0)" xlink:href="#cZ"/></g><g id="aH"><use transform="matrix(0.05,0,0,0.05,0,0)" xlink:href="#cL"/><use transform="matrix(0.05,0,0,0.05,5.95,0)" xlink:href="#cI"/><use transform="matrix(0.05,0,0,0.05,15.949999999999998,0)" xlink:href="#bR"/><use transform="matrix(0.05,0,0,0.05,25.950000000000003,0)" xlink:href="#bS"/></g><path fill="#333" d="M137 0h-34L2-248h35l83 218 83-218h36" id="dj"/><g id="aI"><use transform="matrix(0.05,0,0,0.05,0,0)" xlink:href="#dh"/><use transform="matrix(0.05,0,0,0.05,12.950000000000001,0)" xlink:href="#cX"/><use transform="matrix(0.05,0,0,0.05,17.950000000000003,0)" xlink:href="#dj"/><use transform="matrix(0.05,0,0,0.05,28.6,0)" xlink:href="#dc"/></g><g id="aJ"><use transform="matrix(0.05,0,0,0.05,0,0)" xlink:href="#bV"/><use transform="matrix(0.05,0,0,0.05,3.95,0)" xlink:href="#bR"/><use transform="matrix(0.05,0,0,0.05,13.949999999999998,0)" xlink:href="#bX"/><use transform="matrix(0.05,0,0,0.05,22.95,0)" xlink:href="#bT"/><use transform="matrix(0.05,0,0,0.05,27.950000000000003,0)" xlink:href="#bO"/><use transform="matrix(0.05,0,0,0.05,33.9,0)" xlink:href="#bQ"/><use transform="matrix(0.05,0,0,0.05,43.9,0)" xlink:href="#bW"/><use transform="matrix(0.05,0,0,0.05,58.85,0)" xlink:href="#cH"/><use transform="matrix(0.05,0,0,0.05,68.85,0)" xlink:href="#bR"/><use transform="matrix(0.05,0,0,0.05,78.85,0)" xlink:href="#bT"/></g><g id="aK"><use transform="matrix(0.05,0,0,0.05,0,0)" xlink:href="#bN"/><use transform="matrix(0.05,0,0,0.05,10,0)" xlink:href="#bO"/><use transform="matrix(0.05,0,0,0.05,15.949999999999998,0)" xlink:href="#bP"/><use transform="matrix(0.05,0,0,0.05,25.950000000000003,0)" xlink:href="#bQ"/><use transform="matrix(0.05,0,0,0.05,35.95,0)" xlink:href="#da"/><use transform="matrix(0.05,0,0,0.05,45.95,0)" xlink:href="#cN"/></g><g id="aL"><use transform="matrix(0.05,0,0,0.05,0,0)" xlink:href="#dh"/><use transform="matrix(0.05,0,0,0.05,12.950000000000001,0)" xlink:href="#cX"/><use transform="matrix(0.05,0,0,0.05,17.950000000000003,0)" xlink:href="#dj"/><use transform="matrix(0.05,0,0,0.05,28.6,0)" xlink:href="#dc"/></g><path fill="#333" d="M233-177c-1 41-23 64-60 70L243 0h-38l-65-103H63V0H30v-248c88 3 205-21 203 71zM63-129c60-2 137 13 137-47 0-61-80-42-137-45v92" id="dk"/><g id="aM"><use transform="matrix(0.05,0,0,0.05,0,0)" xlink:href="#dh"/><use transform="matrix(0.05,0,0,0.05,12.950000000000001,0)" xlink:href="#dk"/></g><g id="aN"><use transform="matrix(0.05,0,0,0.05,0,0)" xlink:href="#cO"/><use transform="matrix(0.05,0,0,0.05,12,0)" xlink:href="#cH"/><use transform="matrix(0.05,0,0,0.05,22,0)" xlink:href="#cJ"/><use transform="matrix(0.05,0,0,0.05,25.950000000000003,0)" xlink:href="#cH"/><use transform="matrix(0.05,0,0,0.05,35.95,0)" xlink:href="#cU"/><use transform="matrix(0.05,0,0,0.05,44.95,0)" xlink:href="#bT"/></g><g id="aO"><use transform="matrix(0.05,0,0,0.05,0,0)" xlink:href="#bS"/><use transform="matrix(0.05,0,0,0.05,10,0)" xlink:href="#bO"/><use transform="matrix(0.05,0,0,0.05,15.949999999999998,0)" xlink:href="#bP"/><use transform="matrix(0.05,0,0,0.05,25.950000000000003,0)" xlink:href="#bR"/><use transform="matrix(0.05,0,0,0.05,35.95,0)" xlink:href="#cH"/></g><path fill="#333" d="M234-2c-28 10-62 0-77-18C117 19 8 12 13-65c3-43 29-61 60-76-25-40-17-114 47-108 35 3 59 15 59 50 0 44-40 53-71 69 14 26 32 50 51 72 14-21 24-43 30-72l26 8c-9 33-21 57-38 82 13 13 33 22 57 15v23zM97-151c25-10 52-18 56-48-1-18-13-29-33-29-42 0-39 50-23 77zM42-66c-3 51 71 58 98 28-20-24-41-51-56-80-23 10-40 24-42 52" id="dl"/><use transform="matrix(0.05,0,0,0.05,0,0)" xlink:href="#dl" id="aP"/><g id="aQ"><use transform="matrix(0.05,0,0,0.05,0,0)" xlink:href="#cU"/><use transform="matrix(0.05,0,0,0.05,9,0)" xlink:href="#cI"/><use transform="matrix(0.05,0,0,0.05,19,0)" xlink:href="#bW"/><use transform="matrix(0.05,0,0,0.05,33.95,0)" xlink:href="#cH"/><use transform="matrix(0.05,0,0,0.05,43.95,0)" xlink:href="#bO"/><use transform="matrix(0.05,0,0,0.05,49.900000000000006,0)" xlink:href="#cI"/></g><path fill="#333" d="M101-234c-31-9-42 10-38 44h38v23H63V0H32v-167H5v-23h27c-7-52 17-82 69-68v24" id="dm"/><g id="aR"><use transform="matrix(0.05,0,0,0.05,0,0)" xlink:href="#dm"/><use transform="matrix(0.05,0,0,0.05,5,0)" xlink:href="#bP"/><use transform="matrix(0.05,0,0,0.05,15,0)" xlink:href="#bO"/></g><g id="aS"><use transform="matrix(0.05,0,0,0.05,0,0)" xlink:href="#bR"/><use transform="matrix(0.05,0,0,0.05,10,0)" xlink:href="#cH"/><use transform="matrix(0.05,0,0,0.05,20,0)" xlink:href="#cP"/></g><g id="aT"><use transform="matrix(0.05,0,0,0.05,0,0)" xlink:href="#bW"/><use transform="matrix(0.05,0,0,0.05,14.950000000000001,0)" xlink:href="#bV"/><use transform="matrix(0.05,0,0,0.05,18.900000000000002,0)" xlink:href="#bX"/><use transform="matrix(0.05,0,0,0.05,27.900000000000002,0)" xlink:href="#bX"/><use transform="matrix(0.05,0,0,0.05,36.900000000000006,0)" xlink:href="#bV"/><use transform="matrix(0.05,0,0,0.05,40.85000000000001,0)" xlink:href="#bP"/><use transform="matrix(0.05,0,0,0.05,50.85000000000001,0)" xlink:href="#bR"/></g><path fill="#fff" d="M238-179c0 84-86 86-175 82L45 0H11l48-248c82 0 179-12 179 69zm-34 1c0-53-64-42-116-43l-19 98c63 0 135 9 135-55" id="dn"/><g id="aU"><use transform="matrix(0.05,0,0,0.05,0,0)" xlink:href="#dn"/><use transform="matrix(0.05,0,0,0.05,12,0)" xlink:href="#by"/><use transform="matrix(0.05,0,0,0.05,17.95,0)" xlink:href="#bu"/><use transform="matrix(0.05,0,0,0.05,27.950000000000003,0)" xlink:href="#bB"/><use transform="matrix(0.05,0,0,0.05,36.95,0)" xlink:href="#cE"/><use transform="matrix(0.05,0,0,0.05,46.95,0)" xlink:href="#by"/><use transform="matrix(0.05,0,0,0.05,52.900000000000006,0)" xlink:href="#bw"/></g><g id="aV"><use transform="matrix(0.05,0,0,0.05,0,0)" xlink:href="#bx"/><use transform="matrix(0.05,0,0,0.05,10,0)" xlink:href="#bw"/><use transform="matrix(0.05,0,0,0.05,20,0)" xlink:href="#cF"/></g><g id="aW"><use transform="matrix(0.05,0,0,0.05,0,0)" xlink:href="#bz"/><use transform="matrix(0.05,0,0,0.05,10,0)" xlink:href="#by"/><use transform="matrix(0.05,0,0,0.05,15.949999999999998,0)" xlink:href="#bu"/><use transform="matrix(0.05,0,0,0.05,25.950000000000003,0)" xlink:href="#bx"/><use transform="matrix(0.05,0,0,0.05,35.95,0)" xlink:href="#bw"/></g><g id="aX"><use transform="matrix(0.05,0,0,0.05,0,0)" xlink:href="#bz"/><use transform="matrix(0.05,0,0,0.05,10,0)" xlink:href="#by"/><use transform="matrix(0.05,0,0,0.05,15.949999999999998,0)" xlink:href="#bu"/><use transform="matrix(0.05,0,0,0.05,25.950000000000003,0)" xlink:href="#bx"/><use transform="matrix(0.05,0,0,0.05,35.95,0)" xlink:href="#bw"/></g><g id="aY"><use transform="matrix(0.05,0,0,0.05,0,0)" xlink:href="#bF"/><use transform="matrix(0.05,0,0,0.05,5,0)" xlink:href="#bC"/><use transform="matrix(0.05,0,0,0.05,8.95,0)" xlink:href="#bE"/><use transform="matrix(0.05,0,0,0.05,12.899999999999999,0)" xlink:href="#bH"/><use transform="matrix(0.05,0,0,0.05,22.9,0)" xlink:href="#cT"/><use transform="matrix(0.05,0,0,0.05,32.9,0)" xlink:href="#bG"/></g><g id="aZ"><use transform="matrix(0.05,0,0,0.05,0,0)" xlink:href="#bG"/><use transform="matrix(0.05,0,0,0.05,5,0)" xlink:href="#bE"/><use transform="matrix(0.05,0,0,0.05,8.95,0)" xlink:href="#bv"/><use transform="matrix(0.05,0,0,0.05,23.9,0)" xlink:href="#bw"/></g><g id="ba"><use transform="matrix(0.05,0,0,0.05,0,0)" xlink:href="#bK"/><use transform="matrix(0.05,0,0,0.05,10,0)" xlink:href="#bD"/><use transform="matrix(0.05,0,0,0.05,20,0)" xlink:href="#bJ"/><use transform="matrix(0.05,0,0,0.05,29,0)" xlink:href="#bC"/><use transform="matrix(0.05,0,0,0.05,32.95,0)" xlink:href="#bu"/><use transform="matrix(0.05,0,0,0.05,42.95,0)" xlink:href="#bD"/><use transform="matrix(0.05,0,0,0.05,52.95,0)" xlink:href="#bz"/></g><path fill="#fff" d="M-8 0l5-24 140-142H31l5-24h145l-5 24L36-24h119l-5 24H-8" id="do"/><g id="bb"><use transform="matrix(0.05,0,0,0.05,0,0)" xlink:href="#bA"/><use transform="matrix(0.05,0,0,0.05,9,0)" xlink:href="#bE"/><use transform="matrix(0.05,0,0,0.05,12.949999999999998,0)" xlink:href="#do"/><use transform="matrix(0.05,0,0,0.05,21.95,0)" xlink:href="#bw"/></g><g id="bc"><use transform="matrix(0.05,0,0,0.05,0,0)" xlink:href="#bt"/><use transform="matrix(0.05,0,0,0.05,12,0)" xlink:href="#bu"/><use transform="matrix(0.05,0,0,0.05,22,0)" xlink:href="#bv"/><use transform="matrix(0.05,0,0,0.05,36.95,0)" xlink:href="#bw"/><use transform="matrix(0.05,0,0,0.05,46.95,0)" xlink:href="#bu"/><use transform="matrix(0.05,0,0,0.05,56.95,0)" xlink:href="#bx"/><use transform="matrix(0.05,0,0,0.05,66.95,0)" xlink:href="#bw"/></g><path fill="#fff" d="M133-28C103 26-5 8 13-77c13-62 24-115 90-117 29-1 46 15 56 35 2-12 6-24 8-34h31L144 75h-31zM45-64c-2 27 10 43 35 43 54-1 69-50 69-103 0-29-15-46-42-46-53-1-58 58-62 106" id="dp"/><g id="bd"><use transform="matrix(0.05,0,0,0.05,0,0)" xlink:href="#by"/><use transform="matrix(0.05,0,0,0.05,5.95,0)" xlink:href="#bw"/><use transform="matrix(0.05,0,0,0.05,15.949999999999998,0)" xlink:href="#dp"/><use transform="matrix(0.05,0,0,0.05,25.950000000000003,0)" xlink:href="#cE"/><use transform="matrix(0.05,0,0,0.05,35.95,0)" xlink:href="#bw"/><use transform="matrix(0.05,0,0,0.05,45.95,0)" xlink:href="#bA"/><use transform="matrix(0.05,0,0,0.05,54.95,0)" xlink:href="#bG"/><use transform="matrix(0.05,0,0,0.05,59.95,0)" xlink:href="#bA"/></g><g id="be"><use transform="matrix(0.05,0,0,0.05,0,0)" xlink:href="#bH"/><use transform="matrix(0.05,0,0,0.05,10,0)" xlink:href="#by"/><use transform="matrix(0.05,0,0,0.05,15.949999999999998,0)" xlink:href="#bu"/><use transform="matrix(0.05,0,0,0.05,25.950000000000003,0)" xlink:href="#cE"/><use transform="matrix(0.05,0,0,0.05,35.95,0)" xlink:href="#bx"/><use transform="matrix(0.05,0,0,0.05,45.95,0)" xlink:href="#bz"/></g><g id="bf"><use transform="matrix(0.05,0,0,0.05,0,0)" xlink:href="#bG"/><use transform="matrix(0.05,0,0,0.05,5,0)" xlink:href="#by"/><use transform="matrix(0.05,0,0,0.05,10.95,0)" xlink:href="#cE"/><use transform="matrix(0.05,0,0,0.05,20.95,0)" xlink:href="#bG"/><use transform="matrix(0.05,0,0,0.05,25.950000000000003,0)" xlink:href="#cT"/><use transform="matrix(0.05,0,0,0.05,35.95,0)" xlink:href="#bE"/><use transform="matrix(0.05,0,0,0.05,39.900000000000006,0)" xlink:href="#bx"/><use transform="matrix(0.05,0,0,0.05,49.900000000000006,0)" xlink:href="#bH"/></g><g id="bg"><use transform="matrix(0.05,0,0,0.05,0,0)" xlink:href="#di"/><use transform="matrix(0.05,0,0,0.05,10.3,0)" xlink:href="#bO"/><use transform="matrix(0.05,0,0,0.05,16.25,0)" xlink:href="#cI"/><use transform="matrix(0.05,0,0,0.05,26.25,0)" xlink:href="#bV"/><use transform="matrix(0.05,0,0,0.05,30.200000000000003,0)" xlink:href="#bR"/></g><g id="bh"><use transform="matrix(0.05,0,0,0.05,0,0)" xlink:href="#bW"/><use transform="matrix(0.05,0,0,0.05,14.950000000000001,0)" xlink:href="#bP"/><use transform="matrix(0.05,0,0,0.05,24.950000000000003,0)" xlink:href="#bS"/><use transform="matrix(0.05,0,0,0.05,34.95,0)" xlink:href="#cH"/><use transform="matrix(0.05,0,0,0.05,44.95,0)" xlink:href="#cJ"/></g><g id="bi"><use transform="matrix(0.05,0,0,0.05,0,0)" xlink:href="#bS"/><use transform="matrix(0.05,0,0,0.05,10,0)" xlink:href="#bO"/><use transform="matrix(0.05,0,0,0.05,15.949999999999998,0)" xlink:href="#bP"/><use transform="matrix(0.05,0,0,0.05,25.950000000000003,0)" xlink:href="#bR"/><use transform="matrix(0.05,0,0,0.05,35.95,0)" xlink:href="#cH"/></g><g id="bj"><use transform="matrix(0.05,0,0,0.05,0,0)" xlink:href="#dk"/><use transform="matrix(0.05,0,0,0.05,12.950000000000001,0)" xlink:href="#bQ"/><use transform="matrix(0.05,0,0,0.05,22.950000000000003,0)" xlink:href="#bR"/></g><g id="bk"><use transform="matrix(0.05,0,0,0.05,0,0)" xlink:href="#cU"/><use transform="matrix(0.05,0,0,0.05,9,0)" xlink:href="#cJ"/><use transform="matrix(0.05,0,0,0.05,12.949999999999998,0)" xlink:href="#cI"/><use transform="matrix(0.05,0,0,0.05,22.95,0)" xlink:href="#bX"/><use transform="matrix(0.05,0,0,0.05,31.950000000000003,0)" xlink:href="#bX"/><use transform="matrix(0.05,0,0,0.05,40.95,0)" xlink:href="#bV"/><use transform="matrix(0.05,0,0,0.05,44.900000000000006,0)" xlink:href="#dm"/><use transform="matrix(0.05,0,0,0.05,49.900000000000006,0)" xlink:href="#bV"/><use transform="matrix(0.05,0,0,0.05,53.85,0)" xlink:href="#cU"/><use transform="matrix(0.05,0,0,0.05,62.85,0)" xlink:href="#cI"/><use transform="matrix(0.05,0,0,0.05,72.85000000000001,0)" xlink:href="#bT"/><use transform="matrix(0.05,0,0,0.05,77.85000000000001,0)" xlink:href="#bV"/><use transform="matrix(0.05,0,0,0.05,81.80000000000001,0)" xlink:href="#bP"/><use transform="matrix(0.05,0,0,0.05,91.80000000000001,0)" xlink:href="#bR"/></g><g id="bl"><use transform="matrix(0.05,0,0,0.05,0,0)" xlink:href="#cU"/><use transform="matrix(0.05,0,0,0.05,9,0)" xlink:href="#cJ"/><use transform="matrix(0.05,0,0,0.05,12.949999999999998,0)" xlink:href="#cI"/><use transform="matrix(0.05,0,0,0.05,22.95,0)" xlink:href="#bX"/><use transform="matrix(0.05,0,0,0.05,31.950000000000003,0)" xlink:href="#bX"/><use transform="matrix(0.05,0,0,0.05,40.95,0)" xlink:href="#bV"/><use transform="matrix(0.05,0,0,0.05,44.900000000000006,0)" xlink:href="#dm"/><use transform="matrix(0.05,0,0,0.05,49.900000000000006,0)" xlink:href="#bV"/><use transform="matrix(0.05,0,0,0.05,53.85,0)" xlink:href="#cU"/><use transform="matrix(0.05,0,0,0.05,62.85,0)" xlink:href="#cI"/><use transform="matrix(0.05,0,0,0.05,72.85000000000001,0)" xlink:href="#bT"/><use transform="matrix(0.05,0,0,0.05,77.85000000000001,0)" xlink:href="#bV"/><use transform="matrix(0.05,0,0,0.05,81.80000000000001,0)" xlink:href="#bP"/><use transform="matrix(0.05,0,0,0.05,91.80000000000001,0)" xlink:href="#bR"/><use transform="matrix(0.05,0,0,0.05,101.80000000000001,0)" xlink:href="#bX"/></g><g id="bm"><use transform="matrix(0.05,0,0,0.05,0,0)" xlink:href="#bQ"/><use transform="matrix(0.05,0,0,0.05,10,0)" xlink:href="#bX"/><use transform="matrix(0.05,0,0,0.05,19,0)" xlink:href="#cH"/></g><g id="bn"><use transform="matrix(0.05,0,0,0.05,0,0)" xlink:href="#db"/><use transform="matrix(0.05,0,0,0.05,14.950000000000001,0)" xlink:href="#bP"/><use transform="matrix(0.05,0,0,0.05,24.950000000000003,0)" xlink:href="#bS"/><use transform="matrix(0.05,0,0,0.05,34.95,0)" xlink:href="#cH"/><use transform="matrix(0.05,0,0,0.05,44.95,0)" xlink:href="#cJ"/></g><g id="bo"><use transform="matrix(0.05,0,0,0.05,0,0)" xlink:href="#bS"/><use transform="matrix(0.05,0,0,0.05,10,0)" xlink:href="#bP"/><use transform="matrix(0.05,0,0,0.05,20,0)" xlink:href="#cP"/><use transform="matrix(0.05,0,0,0.05,32.95,0)" xlink:href="#bR"/><use transform="matrix(0.05,0,0,0.05,42.95,0)" xlink:href="#cJ"/><use transform="matrix(0.05,0,0,0.05,46.900000000000006,0)" xlink:href="#bP"/><use transform="matrix(0.05,0,0,0.05,56.900000000000006,0)" xlink:href="#cI"/><use transform="matrix(0.05,0,0,0.05,66.9,0)" xlink:href="#bS"/></g><g id="bp"><use transform="matrix(0.05,0,0,0.05,0,0)" xlink:href="#cJ"/><use transform="matrix(0.05,0,0,0.05,3.95,0)" xlink:href="#cI"/><use transform="matrix(0.05,0,0,0.05,13.949999999999998,0)" xlink:href="#cK"/><use transform="matrix(0.05,0,0,0.05,23.95,0)" xlink:href="#cH"/><use transform="matrix(0.05,0,0,0.05,33.95,0)" xlink:href="#cJ"/><use transform="matrix(0.05,0,0,0.05,37.900000000000006,0)" xlink:href="#bX"/></g><g id="bq"><use transform="matrix(0.05,0,0,0.05,0,0)" xlink:href="#bS"/><use transform="matrix(0.05,0,0,0.05,10,0)" xlink:href="#bP"/><use transform="matrix(0.05,0,0,0.05,20,0)" xlink:href="#cP"/><use transform="matrix(0.05,0,0,0.05,32.95,0)" xlink:href="#bR"/><use transform="matrix(0.05,0,0,0.05,42.95,0)" xlink:href="#cJ"/><use transform="matrix(0.05,0,0,0.05,46.900000000000006,0)" xlink:href="#bP"/><use transform="matrix(0.05,0,0,0.05,56.900000000000006,0)" xlink:href="#cI"/><use transform="matrix(0.05,0,0,0.05,66.9,0)" xlink:href="#bS"/></g><g id="br"><use transform="matrix(0.05,0,0,0.05,0,0)" xlink:href="#bO"/><use transform="matrix(0.05,0,0,0.05,5.95,0)" xlink:href="#cI"/><use transform="matrix(0.05,0,0,0.05,15.949999999999998,0)" xlink:href="#cP"/></g><path fill="#333" d="M175 0L67-191c6 58 2 128 3 191H24v-248h59L193-55c-6-58-2-129-3-193h46V0h-61" id="dq"/><path fill="#333" d="M140-251c80 0 125 45 125 126S219 4 139 4C58 4 15-44 15-125s44-126 125-126zm-1 214c52 0 73-35 73-88 0-50-21-86-72-86-52 0-73 35-73 86s22 88 72 88" id="dr"/><g id="bs"><use transform="matrix(0.04320987654320988,0,0,0.04320987654320988,0,0)" xlink:href="#dq"/><use transform="matrix(0.04320987654320988,0,0,0.04320987654320988,11.19135802469136,0)" xlink:href="#dr"/></g></defs></g></svg>